<?xml version="1.0" encoding="UTF-8" standalone="no"?>
<svg
   xmlns:dc="http://purl.org/dc/elements/1.1/"
   xmlns:cc="http://creativecommons.org/ns#"
   xmlns:rdf="http://www.w3.org/1999/02/22-rdf-syntax-ns#"
   xmlns:svg="http://www.w3.org/2000/svg"
   xmlns="http://www.w3.org/2000/svg"
   viewBox="0 0 438 470"
   height="470"
   width="438"
   id="svg7239"
   version="1.1">
  <metadata
     id="metadata7245">
    <rdf:RDF>
      <cc:Work
         rdf:about="">
        <dc:format>image/svg+xml</dc:format>
        <dc:type
           rdf:resource="http://purl.org/dc/dcmitype/StillImage" />
        <dc:title></dc:title>
      </cc:Work>
    </rdf:RDF>
  </metadata>
  <defs
     id="defs7243" />
  <path
     id="path7249"
     d="m 193.04611,465.90673 c -4.02969,-2.82251 -5.78845,-9.26202 -5.72331,-20.95514 0.0706,-12.66027 1.61279,-22.61644 8.52242,-55.01815 7.22385,-33.87522 7.71731,-42.26857 2.56107,-43.56272 -10.23321,-2.56837 -27.26863,24.79667 -37.5365,60.29716 -3.61665,12.50431 -4.79873,14.00548 -8.74085,11.10017 -3.94482,-2.90729 -6.29264,-10.39232 -6.34684,-20.2342 l -0.0447,-8.11449 -5.40459,9.13536 c -12.51236,21.14963 -23.00265,34.32916 -28.39412,35.67313 -4.28648,1.06851 -9.47067,-1.71735 -11.63082,-6.25012 -3.207506,-6.73056 -3.148674,-22.08221 0.1423,-37.13192 0.46941,-2.14656 0.20021,-1.98435 -1.693915,1.02087 -4.841619,7.68165 -9.217398,12.101 -13.662646,13.79865 -6.110297,2.33356 -9.408188,0.75821 -12.858379,-6.14216 -2.280507,-4.561 -2.543085,-6.29963 -2.466846,-16.33383 0.0976,-12.84065 2.342606,-20.43148 7.922269,-26.78637 7.707162,-8.77797 20.851945,-9.72198 28.984787,-2.08157 4.1899,3.93621 2.09961,5.44482 -2.51488,1.81507 -6.265792,-4.92868 -12.769509,-0.21321 -18.393835,13.33633 -3.203827,7.71833 -6.38545,20.85642 -6.38545,26.36784 0,4.45785 1.737152,8.2764 3.765129,8.2764 3.590702,0 12.196317,-10.81811 17.663426,-22.20468 2.89781,-6.03535 5.82348,-12.12186 6.50151,-13.52553 2.39504,-4.95834 8.90299,-3.26303 12.9494,3.37327 1.09405,1.79428 1.99089,4.21227 1.99299,5.37328 0.002,1.16103 -2.25405,8.97063 -5.01365,17.35469 -7.55419,22.95065 -9.84175,35.62614 -6.65044,36.85077 3.60726,1.38423 13.11413,-10.45117 27.20165,-33.86414 6.70702,-11.14685 8.88615,-15.73519 9.88549,-20.81479 1.99317,-10.13105 2.65196,-11.33568 6.19932,-11.33568 3.5787,0 10.93617,6.01989 11.86099,9.70469 0.31706,1.26327 -0.37805,5.38725 -1.54471,9.16441 -3.32299,10.75863 -2.44467,10.17227 2.30705,-1.54017 11.44313,-28.20593 23.7148,-41.82965 37.67834,-41.82965 6.30469,0 10.15543,2.00653 13.17675,6.86607 5.00964,8.05765 2.31302,25.49982 -9.82871,63.57351 -10.95643,34.3569 -13.46603,53.0849 -7.11347,53.0849 4.25924,0 16.88368,-15.47477 28.82281,-35.33039 9.70152,-16.13432 24.57269,-44.1002 25.92656,-48.75598 0.67465,-2.32007 1.26214,-7.75847 1.30552,-12.0853 0.0852,-8.49781 1.35407,-11.2902 7.06585,-15.54981 3.88466,-2.89702 12.84603,-2.78831 18.64608,0.22618 10.61108,5.51496 16.18411,19.67839 13.72097,34.87073 -0.58637,3.61668 -0.92956,6.71236 -0.76264,6.87928 0.8018,0.80182 9.91521,-6.01427 12.40388,-9.27707 l 2.81694,-3.69319 -1.66223,-5.92414 c -4.70871,-16.7817 1.44408,-28.75961 14.7732,-28.75961 7.56221,0 13.16962,5.84641 13.16962,13.73095 0,5.10279 -1.67644,4.51375 -2.48421,-0.87284 -0.798,-5.32143 -4.50368,-9.79552 -8.11319,-9.79552 -2.6941,0 -5.73643,2.37678 -5.73643,4.48152 0,4.08784 4.26242,14.28362 11.79007,28.20195 4.71158,8.71159 9.08452,17.32512 9.7176,19.1412 0.63307,1.81608 1.46986,3.30196 1.85952,3.30196 0.38966,0 4.38309,-2.26138 8.8743,-5.0253 7.63258,-4.69713 14.32644,-10.88818 19.44855,-17.98769 3.98005,-5.51652 3.84562,-1.58887 -0.14385,4.20368 -4.5701,6.63559 -9.38368,10.78994 -19.77364,17.0656 l -7.50689,4.53426 -0.15674,12.13115 c -0.17462,13.51198 -1.61557,18.23119 -7.67316,25.13042 -3.93619,4.48306 -12.51367,8.94933 -17.18724,8.94933 -7.24158,0 -14.1812,-5.8868 -15.99061,-13.56469 -1.92605,-8.17276 5.10693,-17.47984 18.52868,-24.51989 4.07069,-2.13518 7.40125,-4.11701 7.40125,-4.40403 0,-1.07326 -13.49765,-23.13245 -17.06503,-27.88938 -0.18514,-0.24685 -1.11907,0.67191 -2.07542,2.04171 -2.77868,3.98002 -6.53998,7.11905 -11.62509,9.70183 -4.03919,2.05156 -5.18837,3.37622 -7.83451,9.03088 -7.71577,16.4882 -22.43834,22.75164 -30.87987,13.13725 -4.03765,-4.59864 -5.01641,-7.17928 -6.48433,-17.09687 l -1.20406,-8.13476 -6.4431,12.21821 c -9.62602,18.25403 -23.28117,40.47868 -30.41141,49.49653 -9.05023,11.44611 -16.94912,15.58528 -22.42392,11.75058 z m 131.89175,-16.93764 c 1.70581,-1.0312 4.23244,-3.85 5.61474,-6.264 2.14059,-3.73825 2.50799,-5.67588 2.4776,-13.06646 -0.0221,-5.35772 -0.60782,-9.94685 -1.53129,-11.99579 l -1.49562,-3.31846 -7.14605,4.22666 c -8.07161,4.7741 -13.27672,9.28085 -15.40004,13.33384 -3.36153,6.41649 -0.25695,14.90954 6.73237,18.41742 3.78147,1.8979 5.82199,1.6448 10.74829,-1.33321 z m -48.63075,-31.01824 c 3.81985,-1.97531 8.73,-7.69502 11.79025,-13.73408 l 2.49782,-4.92923 -5.48569,-0.56616 c -3.01712,-0.3114 -7.65841,-1.52728 -10.31397,-2.70195 -2.65554,-1.17469 -4.99475,-1.96929 -5.19826,-1.7658 -0.20348,0.20348 -0.63986,4.68811 -0.96972,9.9658 -0.88002,14.08032 0.88879,17.24307 7.67957,13.73142 z m 16.38098,-25.82896 c 1.54468,-5.56211 1.31227,-18.72112 -0.4172,-23.623 -3.29834,-9.34844 -11.10193,-15.42502 -19.80896,-15.42502 -8.27123,0 -13.40866,4.9304 -13.40866,12.86833 0,3.75891 0.0129,3.7703 2.11149,1.87105 1.92395,-1.74114 2.35262,-1.77553 4.82612,-0.38719 1.49306,0.83803 3.79954,3.11974 5.12554,5.07046 2.04784,3.01269 2.31204,4.31543 1.75447,8.65109 -1.33646,10.39222 -1.44216,10.01432 3.49816,12.50559 2.99531,1.51045 6.38702,2.29694 9.90543,2.29694 5.31317,0 5.35787,-0.0266 6.41361,-3.82825 z m 73.55585,-40.89875 c 0,-0.45643 1.4205,-2.17914 3.15666,-3.82824 3.19716,-3.03685 13.17717,-15.15293 13.17717,-15.99753 0,-0.25262 -1.81292,-1.00247 -4.0287,-1.66634 -7.84452,-2.35028 -10.82788,-9.57914 -9.95733,-24.12731 0.86737,-14.49521 2.0432,-15.57341 9.18475,-8.42213 5.25703,5.26418 7.86386,12.53571 7.86386,21.93558 0,8.82499 1.14466,7.78389 9.02226,-8.20602 9.13235,-18.53684 14.9551,-38.17641 17.08517,-57.6267 l 0.69874,-6.3804 -3.44966,-0.0224 c -9.97102,-0.0648 -19.3124,-9.8863 -20.98089,-22.05929 l -0.65273,-4.76221 4.77199,0.53787 c 2.68671,0.30283 6.55166,1.71559 8.84463,3.23301 3.57912,2.36857 5.53543,4.59496 10.98046,12.49644 1.08299,1.5716 1.20677,-0.30229 0.71744,-10.86153 -1.36868,-29.53464 -9.77361,-66.35771 -18.40808,-80.64823 -4.23173,-7.00372 -5.91064,-13.2741 -5.01927,-18.74573 0.83057,-5.09839 5.39495,-13.9219 7.20173,-13.9219 1.92446,0 5.14228,5.00713 6.53016,10.16135 1.38467,5.14228 0.73543,12.02763 -1.9297,20.46456 -1.75008,5.54017 -1.74125,5.70966 0.66356,12.76079 1.34045,3.93033 3.96912,13.1181 5.84152,20.41728 1.87238,7.29917 3.62655,12.58213 3.89815,11.73993 0.27159,-0.84222 1.04066,-3.53903 1.70907,-5.99293 1.31912,-4.8429 7.26066,-11.80902 10.97905,-12.87237 2.98091,-0.85243 3.68746,1.94281 3.20065,12.66251 -0.28159,6.20039 -0.86668,8.78304 -2.48814,10.98296 -1.94687,2.6414 -6.69458,5.65616 -10.7461,6.82368 -1.42657,0.4111 -1.50895,1.26662 -0.61926,6.43031 0.56442,3.27587 1.04611,14.9142 1.0704,25.86297 0.0409,18.41304 -1.07897,30.15269 -4.08807,42.85662 l -0.60917,2.57181 2.94579,-2.69507 c 1.62018,-1.48227 4.84638,-3.64729 7.16934,-4.81112 4.99613,-2.50312 17.60908,-4.75802 18.97485,-3.39223 1.50162,1.5016 -1.964,8.44469 -6.55681,13.13604 -5.04848,5.1568 -12.44997,8.5264 -20.29024,9.23733 l -5.79769,0.52571 -3.30283,8.80218 c -6.39647,17.04688 -17.62827,35.53089 -29.15708,47.9834 -5.40242,5.83525 -7.60565,7.40457 -7.60565,5.41735 z m 16.83642,-32.48569 c -0.006,-7.73023 -0.40011,-9.8975 -2.55847,-14.09161 -2.57894,-5.01139 -7.5212,-9.71219 -8.83245,-8.40093 -0.3922,0.3922 -0.74426,5.6444 -0.78236,11.67155 -0.0553,8.7511 0.30391,11.64232 1.78332,14.35334 1.74486,3.19746 7.12649,6.58984 9.37693,5.91085 0.58236,-0.1757 1.01751,-4.23195 1.01303,-9.4432 z m 39.05486,-35.08637 c 5.35492,-2.36522 10.87985,-7.18429 13.10411,-11.42996 1.97347,-3.76694 1.91539,-3.87893 -2.01159,-3.87893 -9.28027,0 -20.144,6.52296 -24.24203,14.55573 l -2.10579,4.12773 5.20259,-0.61617 c 2.86143,-0.3389 7.38515,-1.58019 10.05271,-2.7584 z m -10.54121,-39.68281 c 0.97164,-1.57215 -5.50605,-13.15989 -9.14029,-16.35079 -3.46186,-3.03955 -11.14844,-6.11503 -12.33007,-4.93342 -0.89443,0.89443 2.43751,10.30506 5.03083,14.20894 3.47479,5.23082 14.61602,10.02578 16.43953,7.07527 z m 8.23131,-49.29965 c 3.9834,-3.13335 5.62871,-7.84817 5.62871,-16.12963 0,-8.13313 -0.99255,-8.9412 -5.36959,-4.37146 -3.61812,3.77738 -5.7615,9.22283 -6.53208,16.59525 -0.59142,5.65848 -0.48531,6.11897 1.40993,6.11897 1.12722,0 3.31559,-0.99592 4.86303,-2.21313 z m -18.79174,-61.03146 c 1.04957,-6.41298 0.4076,-11.5074 -1.96921,-15.62691 -2.04462,-3.5437 -3.22644,-3.18427 -5.6553,1.71995 -2.96505,5.98691 -2.65168,13.30802 0.87853,20.52347 l 2.96085,6.0518 1.42908,-3.5023 c 0.786,-1.92627 1.84622,-6.05097 2.35605,-9.16601 z M 218.43751,323.60579 c 0.80033,11.08964 -13.65823,9.74434 -25.21566,14.9947 -10.63046,4.82926 -18.81728,15.66494 -21.79595,21.78576 -4.42308,-10.18417 7.60821,-22.74617 20.46827,-28.18301 10.038,-4.24375 17.80344,-3.25992 26.54334,-8.59745 z M 48.97483,343.46964 c -1.680056,-1.91349 -4.506041,-5.58859 -6.279975,-8.16691 -1.773935,-2.57833 -3.376854,-4.68787 -3.562048,-4.68787 -0.185196,0 -1.985928,0.68909 -4.001623,1.53131 -5.135617,2.14579 -9.54339,1.89616 -15.470412,-0.87616 -4.855237,-2.27099 -13.7816572,-10.63152 -13.7816572,-12.90796 0,-1.37514 4.4314972,-3.06013 8.0480692,-3.06013 4.366408,0 12.694357,2.78382 16.933094,5.66029 2.113311,1.43414 3.993732,2.45619 4.178702,2.27121 0.184981,-0.18498 -1.275895,-4.35158 -3.246387,-9.25914 -4.855248,-12.09216 -8.300938,-26.14038 -10.332098,-42.12435 l -1.694727,-13.3365 -4.933843,-3.40155 C 9.2312734,251.25062 4.516466,245.71608 2.2916164,240.39128 0.57161438,236.27473 0.25208407,226.93032 1.7986413,225.9745 c 1.7934328,-1.10838 11.5004877,4.96407 14.2200167,8.89566 1.441684,2.08423 2.868575,3.80694 3.170874,3.82824 0.302287,0.0213 0.665316,-3.52151 0.806717,-7.87294 0.730172,-22.46933 6.837346,-51.52235 13.654417,-64.95666 1.748525,-3.4458 1.859106,-4.55726 0.851523,-8.55873 -2.01838,-8.01574 -1.517268,-18.13651 1.165693,-23.54304 1.302633,-2.62499 3.002983,-4.77271 3.778543,-4.77271 0.77557,0 2.295229,1.60785 3.377038,3.57302 1.537379,2.79273 1.894528,5.1336 1.635454,10.71906 -0.294571,6.35053 -1.029399,8.56662 -6.600905,19.90685 -3.602525,7.33257 -7.360537,16.88623 -8.83444,22.45899 -4.456468,16.84967 -4.638468,16.23844 2.628274,8.82723 6.666291,-6.79884 11.974659,-9.38473 16.786121,-8.17713 3.051066,0.76577 2.965528,1.83229 -0.653006,8.1412 -4.739563,8.26344 -12.401756,13.6677 -19.378144,13.6677 -5.401174,0 -5.683453,1.62252 -5.683453,32.66763 0,19.29051 0.433958,30.42413 1.387067,35.58622 l 1.387078,7.51248 2.417925,-5.98119 c 4.041988,-9.9986 9.889545,-12.88244 11.138,-5.49292 1.31231,7.76753 -1.469197,14.8219 -7.593428,19.25827 l -3.950916,2.86203 3.297206,10.13387 c 4.97088,15.27785 15.215379,33.99434 21.429856,39.15189 0.892949,0.74109 1.623551,1.75058 1.623551,2.24331 0,1.8149 -1.91021,0.80476 -4.884873,-2.58319 z M 33.290087,330.515 c 1.768219,-0.6164 3.214935,-1.5323 3.214935,-2.03532 0,-1.59233 -8.167512,-6.9061 -13.927325,-9.06113 -5.992326,-2.24203 -10.198448,-2.60343 -12.6033371,-1.08293 -3.4219653,2.16355 11.5709571,13.26045 17.9561941,13.29014 1.179537,0.005 3.591326,-0.49435 5.359533,-1.11076 z m 1.576092,-45.66427 c 2.090084,-4.09166 2.764252,-8.49182 1.824712,-11.90962 l -0.840508,-3.05756 -2.56249,2.76497 c -2.688965,2.90147 -4.380822,7.45859 -5.575559,15.01815 l -0.714656,4.52197 3.237782,-2.3055 c 1.780773,-1.26802 3.864601,-3.53261 4.630719,-5.03241 z M 20.171205,253.679 c 0,-8.71791 -4.747986,-18.18789 -11.2892507,-22.51669 -5.2138055,-3.45034 -6.0654303,-3.3278 -6.0654303,0.87276 0,6.83465 4.6887243,14.92694 11.588935,20.00142 4.57793,3.36666 5.765746,3.70502 5.765746,1.64251 z m 17.355936,-51.06216 c 3.794876,-2.51133 10.20738,-10.55878 10.20738,-12.80987 0,-2.14105 -5.885962,-1.04352 -9.866125,1.83971 -3.468201,2.51233 -5.92492,5.23392 -12.016454,13.31196 -1.850212,2.45357 7.159767,0.64635 11.675199,-2.3418 z m 2.987985,-50.18096 c 2.338872,-6.25118 2.705391,-12.76616 0.994342,-17.67448 -1.47917,-4.24315 -2.404745,-4.05538 -4.38317,0.88919 -2.344883,5.86041 -2.009569,22.43834 0.453846,22.43834 0.450946,0 1.771688,-2.54387 2.934982,-5.65305 z m 222.621604,184.3704 c -5.15755,-1.57454 -10.96454,-5.12453 -12.68984,-7.7577 -1.50397,-2.29532 -1.58184,-3.16445 -0.51444,-5.74138 2.61869,-6.32207 -0.90501,-39.65604 -7.23896,-68.48017 -2.3908,-10.8799 -7.7857,-27.81587 -9.89765,-31.07125 -4.74905,-7.32019 -17.12275,-3.02625 -22.75526,7.89656 -6.64527,12.88681 -7.6914,37.52444 -1.85914,43.78464 1.81329,1.94634 2.78915,2.18704 6.56895,1.62021 7.64221,-1.14601 18.21192,5.37205 16.39389,10.10972 -1.69486,4.41674 -14.64853,6.45612 -20.8006,3.27479 -4.74286,-2.45264 -10.05636,-9.06136 -12.53101,-15.58556 -4.40137,-11.60391 -2.08032,-34.99813 4.88331,-49.21973 3.43451,-7.01421 9.59157,-13.99925 14.58554,-16.54699 4.75703,-2.42685 14.99884,-2.69856 19.2307,-0.51018 7.89377,4.08203 17.51885,19.36095 21.57065,34.24137 2.77641,10.19646 8.35632,36.71064 11.70883,55.63706 1.49187,8.42212 2.81776,15.42037 2.94643,15.55168 0.12871,0.13128 1.98682,-6.30014 4.12919,-14.2921 11.13226,-41.52821 26.60621,-79.76663 41.20132,-101.81464 7.46446,-11.27609 18.46687,-22.28019 25.92533,-25.92928 6.96148,-3.40593 18.16653,-4.90418 18.16653,-2.42907 0,1.09928 -1.54181,1.68938 -5.47458,2.09528 -26.75596,2.76145 -53.12186,46.19898 -75.1177,123.75553 -2.70708,9.54507 -5.95427,21.84795 -7.21598,27.3397 -2.214,9.63667 -4.95353,15.12147 -7.46138,14.93839 -0.66109,-0.0483 -2.35045,-0.43835 -3.75413,-0.86688 z M 84.740825,331.97527 c -2.104673,-0.29745 -3.317806,-1.044 -3.317806,-2.04176 0,-1.3443 1.17381,-1.46897 8.077735,-0.85783 20.635496,1.82666 33.280506,-8.12609 50.426156,-39.6899 l 6.9503,-12.79492 -9.06389,-15.60906 c -4.98514,-8.58497 -11.62222,-19.99607 -14.74905,-25.35798 -9.14495,-15.68181 -15.09502,-27.81583 -15.09697,-30.78739 -0.002,-2.85283 6.69254,-11.01728 9.03358,-11.01728 0.65155,0 4.37894,6.5463 8.28309,14.5473 5.97864,12.25238 25.3894,46.2261 28.89171,50.56777 0.81029,1.00447 1.57383,0.40762 3.26488,-2.55215 2.72658,-4.77222 11.40623,-19.99922 13.80701,-24.22212 9.95361,-17.50811 27.00976,-40.81183 35.88338,-49.02723 14.19955,-13.14627 26.93968,-14.25851 37.48979,-3.27289 4.86463,5.06546 3.11177,6.86983 -2.09981,2.1615 -11.71137,-10.58055 -21.42087,-8.54837 -36.90656,7.72445 -4.74744,4.98875 -11.31864,13.19338 -14.60271,18.23251 -14.93937,22.92341 -19.87427,30.93843 -24.90962,40.45706 -2.97022,5.61475 -6.24697,11.43684 -7.2817,12.93798 l -1.88132,2.72932 16.60298,24.834 c 17.03788,25.48449 18.91691,27.48661 22.78434,24.2769 1.2495,-1.03697 1.47512,-0.5136 1.47512,3.42175 0,5.41945 -1.53554,7.3645 -6.96896,8.82757 -10.23284,2.75541 -19.16273,-5.82962 -35.06228,-33.70819 -3.50126,-6.13918 -6.64004,-11.16213 -6.97507,-11.16213 -0.33504,0 -1.66055,2.18209 -2.94558,4.84911 -5.31158,11.02388 -15.32148,26.5038 -21.36188,33.03533 -8.94407,9.67129 -16.67603,13.45442 -28.104395,13.75109 -4.578563,0.11889 -9.817676,0.005 -11.64247,-0.25281 z M 161.31188,191.77782 c -1.82134,-0.41844 -4.07809,-1.39366 -5.01501,-2.16712 -3.28284,-2.71011 -5.72015,-10.23352 -6.22817,-19.22484 -0.81008,-14.33786 2.5838,-33.47181 16.57667,-93.455587 9.53589,-40.877897 8.78802,-54.010491 -2.80007,-49.168677 -12.05825,5.038256 -28.91516,35.549194 -39.57335,71.627677 -3.75047,12.695477 -6.79642,16.844247 -12.36674,16.844247 -3.0438,0 -3.1454,-0.1362 -2.47527,-3.31781 2.91192,-13.825019 3.94335,-22.397384 4.03941,-33.572339 0.0954,-11.103269 -0.14601,-13.184973 -1.73364,-14.946995 -2.44704,-2.715865 -4.86519,-1.95433 -9.95438,3.134869 -7.589758,7.589742 -16.522917,25.537218 -21.446357,43.087525 -1.320804,4.70819 -3.312642,9.24567 -4.703232,10.71412 -2.262397,2.38908 -2.579508,2.45246 -5.108257,1.02086 -8.993696,-5.0916 -9.858174,-26.074293 -2.228903,-54.100816 2.841287,-10.437667 4.127514,-12.250363 8.692407,-12.250363 2.979319,0 4.52309,0.839272 8.072397,4.38858 5.876439,5.876448 6.463415,8.714724 3.519131,17.016469 -3.622094,10.212923 -3.575829,10.285822 1.170635,1.844618 5.882319,-10.461216 11.039359,-16.433198 16.454389,-19.054561 11.55323,-5.592821 21.03952,0.61555 21.22742,13.892432 0.0625,4.411673 0.17492,4.636069 1.16782,2.329733 7.44535,-17.294408 10.72287,-24.134767 14.8317,-30.954533 13.69462,-22.730151 32.13149,-30.963088 44.67516,-19.949604 12.1862,10.699621 8.26971,39.490974 -15.46493,113.687245 -11.95436,37.37026 -13.67699,49.51188 -7.02466,49.51188 8.14694,0 20.7294,-20.71106 39.3826,-64.82483 3.56124,-8.42213 10.23428,-22.89287 14.82899,-32.157204 4.59471,-9.264338 8.92438,-18.681804 9.62149,-20.927703 2.92083,-9.410005 5.3295,-13.799503 7.93048,-14.452305 3.73961,-0.938582 7.27636,0.681223 10.67437,4.888794 5.139,6.363339 4.91998,9.90013 -1.58092,25.529745 -8.44178,20.295973 -12.7011,36.508233 -10.23848,38.970853 1.56585,1.56584 9.34118,-4.55699 16.27271,-12.81427 7.68183,-9.15106 13.42539,-17.283411 22.83086,-32.326366 4.78362,-7.650851 5.29567,-9.006486 4.73236,-12.52913 -0.34739,-2.172509 -0.14868,-6.973161 0.44159,-10.668116 2.36981,-14.834382 10.84314,-24.088133 23.42066,-25.577757 10.08601,-1.194532 16.888,2.227218 20.57863,10.352139 2.24256,4.937008 2.49286,13.669547 0.47104,16.434546 -2.13711,2.922681 -3.02057,1.172369 -2.75033,-5.449044 0.284,-6.958594 -0.69572,-9.953409 -4.49838,-13.750644 -5.88008,-5.871712 -14.80685,-1.50411 -14.76559,7.224366 0.0193,4.091397 2.44073,16.5199 4.01229,20.594166 11.0798,28.7246 16.41455,43.44784 17.44605,48.14889 1.47997,6.74486 -0.0842,6.85905 16.80631,-1.22667 36.74606,-17.590676 54.47223,-37.722687 48.04137,-54.561648 -2.2403,-5.866158 -6.75743,-9.715253 -11.40139,-9.715253 -9.95311,0 -22.88988,10.235843 -24.81146,19.631349 -0.89507,4.376381 -3.81377,4.626861 -3.3009,0.28327 1.26569,-10.719332 14.35067,-21.903005 26.63078,-22.761215 4.68028,-0.327095 6.29334,0.02276 9.19398,1.994074 7.76329,5.276017 10.31475,16.77439 6.16267,27.772512 -5.48196,14.520732 -31.55609,34.128881 -60.97889,45.857091 l -4.33868,1.72943 v 7.70778 c 0,17.09224 -6.54826,35.46183 -16.32693,45.80134 -8.96626,9.4805 -24.9532,15.53307 -34.30369,12.98718 -18.86886,-5.1375 -22.82292,-29.20049 -7.01814,-42.70998 5.57184,-4.76268 19.35694,-12.24186 28.80937,-15.63071 3.50921,-1.25811 6.3804,-2.67482 6.3804,-3.14824 0,-1.94159 -5.14677,-14.3112 -9.93472,-23.87682 -4.68861,-9.367134 -10.23455,-21.690917 -11.89518,-26.432573 -0.53014,-1.513788 -2.85397,1.358187 -10.73826,13.271227 -11.42273,17.259626 -21.17445,29.103686 -27.64204,33.572966 -7.73763,5.34691 -16.78217,3.3736 -20.22403,-4.41242 -1.76419,-3.99086 -2.36731,-20.37898 -0.9645,-26.207831 1.20689,-5.014789 -5.72702,9.132121 -16.12794,32.905071 -12.5482,28.68085 -18.51322,40.81478 -24.78436,50.41575 -7.37892,11.29691 -12.89681,14.86315 -20.34836,13.15118 z m 129.45249,-8.27429 c 9.67225,-6.52881 15.32944,-18.34563 15.58813,-32.56065 0.0868,-4.77254 -0.21251,-10.44262 -0.66523,-12.60018 -0.75813,-3.613 -1.03983,-3.87175 -3.56652,-3.27597 -1.50885,0.35578 -8.25604,3.33815 -14.99372,6.6275 -14.75906,7.20538 -21.10894,12.81284 -23.45491,20.71257 -2.71199,9.13223 0.66649,18.65667 8.16274,23.01215 5.73103,3.32981 12.116,2.68375 18.92951,-1.91542 z M 240.93125,38.117633 C 235.07872,33.108082 230.4691,23.576994 230.4691,16.485575 c 0,-6.522185 1.82429,-10.4777761 6.46457,-14.0171 8.07742,-6.1609523 15.35911,-3.7941312 18.07697,5.8756824 l 1.0948,3.8951866 4.00033,-3.6140611 c 2.20019,-1.987744 5.20888,-3.9173904 6.68596,-4.288117 5.93403,-1.4893481 13.71485,5.54529 13.67343,12.3621581 -0.0285,4.690969 -3.36903,11.024029 -7.69643,14.591039 -3.79776,3.130438 -12.51146,6.860092 -13.56531,5.806243 -0.86442,-0.864415 1.14554,-2.2102 5.271,-3.529217 5.41818,-1.732334 11.43271,-7.774998 13.01438,-13.07523 1.12323,-3.764058 1.07307,-4.860985 -0.3597,-7.865561 -1.94567,-4.0800951 -6.95388,-7.0579338 -10.21515,-6.0738212 -2.8599,0.8629869 -7.41479,5.1116072 -10.05717,9.3808992 -2.77553,4.484408 -3.76471,4.172473 -3.23717,-1.020864 0.52893,-5.2070676 -1.99856,-10.7531845 -5.88125,-12.9053079 -2.35332,-1.30442876 -3.06695,-1.25165012 -6.62214,0.4897389 -12.05916,5.9067984 -11.16104,22.303236 1.88231,34.364137 6.05584,5.599701 4.27287,6.683184 -2.06728,1.256253 z"
     style="fill:#806600;stroke-width:1.02086353" />
</svg>
