<?xml version="1.0" encoding="UTF-8" standalone="no"?>
<svg
   xmlns:dc="http://purl.org/dc/elements/1.1/"
   xmlns:cc="http://creativecommons.org/ns#"
   xmlns:rdf="http://www.w3.org/1999/02/22-rdf-syntax-ns#"
   xmlns:svg="http://www.w3.org/2000/svg"
   xmlns="http://www.w3.org/2000/svg"
   version="1.0"
   width="563.000000pt"
   height="429.000000pt"
   viewBox="0 0 563.000000 429.000000"
   preserveAspectRatio="xMidYMid meet"
   id="svg3729">
  <metadata
     id="metadata3735">
    <rdf:RDF>
      <cc:Work
         rdf:about="">
        <dc:format>image/svg+xml</dc:format>
        <dc:type
           rdf:resource="http://purl.org/dc/dcmitype/StillImage" />
        <dc:title></dc:title>
      </cc:Work>
    </rdf:RDF>
  </metadata>
  <defs
     id="defs3733" />
  <g
     transform="matrix(0.00524849,0,0,-0.00656383,9.117648,35.762623)"
     id="g3727"
     style="fill:#ffb6c1;fill-opacity:1;stroke:none">
    <path
       d="M 213,4199 C 101,4166 46,4000 70,3758 c 15,-156 33,-263 71,-408 137,-526 409,-1003 804,-1408 49,-51 92,-97 94,-103 1,-6 -21,-36 -51,-67 -68,-72 -129,-174 -164,-277 -26,-76 -28,-90 -28,-265 -1,-197 6,-246 61,-410 34,-101 145,-332 185,-383 117,-152 258,-268 389,-320 152,-60 294,-52 447,25 156,78 375,318 463,507 53,114 52,112 100,221 22,52 47,109 54,125 43,95 168,404 196,483 17,51 36,89 40,85 4,-4 13,-42 19,-83 26,-180 58,-339 73,-357 14,-19 41,-16 61,6 26,29 62,154 76,269 8,63 17,101 24,99 6,-2 25,-48 42,-103 99,-318 265,-684 401,-886 92,-137 231,-293 307,-343 267,-177 525,-140 771,109 250,252 405,588 405,876 0,188 -72,411 -196,603 -24,37 -44,73 -44,80 0,7 29,44 64,83 64,70 156,179 211,249 17,21 39,50 51,64 36,44 159,231 229,346 59,99 145,265 204,398 41,90 109,312 131,422 11,61 26,133 31,160 14,68 6,392 -13,482 -16,81 -38,112 -103,145 -99,52 -302,25 -530,-69 -100,-41 -477,-229 -571,-284 -370,-218 -691,-487 -960,-804 -171,-202 -345,-488 -439,-725 -21,-52 -42,-99 -45,-103 -4,-4 -13,14 -19,40 -38,146 -62,167 -99,86 -12,-27 -25,-63 -30,-82 -12,-53 -30,-50 -55,11 -62,153 -211,417 -323,574 -192,268 -508,604 -739,782 -380,294 -775,500 -1116,582 -90,21 -276,26 -336,9 z m 385,-442 c 64,-59 46,-190 -31,-222 -45,-19 -83,3 -109,62 -23,51 -19,89 12,141 34,55 81,62 128,19 z m 4611,-11 c 67,-71 31,-226 -51,-226 -45,0 -68,17 -90,67 -24,55 -17,110 19,153 33,39 88,42 122,6 z m -4143,-72 c 299,-86 642,-369 988,-815 120,-154 306,-430 306,-453 0,-5 -45,38 -100,96 -55,58 -139,139 -187,179 -49,41 -90,76 -93,79 -13,15 -226,165 -315,222 -152,99 -370,221 -568,320 -172,86 -180,91 -222,149 -80,109 -72,193 23,236 41,18 72,15 168,-13 z m 3734,1 c 96,-49 93,-152 -7,-262 -29,-31 -79,-62 -208,-126 -197,-98 -440,-237 -605,-345 -63,-41 -117,-78 -120,-82 -3,-3 -21,-17 -40,-30 -103,-70 -240,-188 -357,-307 -73,-74 -133,-131 -133,-126 0,35 324,488 450,627 332,371 580,562 823,636 104,31 157,36 197,15 z M 713,3169 c 31,-24 51,-88 42,-135 -3,-19 -17,-47 -31,-64 -59,-69 -144,-14 -144,93 0,103 69,157 133,106 z m 4348,1 c 48,-26 67,-127 35,-188 -49,-94 -157,-49 -158,67 0,96 59,155 123,121 z m -3897,-40 c 320,-85 648,-315 1002,-700 110,-120 244,-292 244,-314 0,-4 -37,25 -82,66 -144,129 -242,200 -399,291 -244,141 -557,268 -784,318 -107,24 -139,41 -181,96 -26,34 -33,55 -39,111 -14,143 55,181 239,132 z m 3573,-14 c 24,-21 28,-32 31,-92 3,-60 0,-76 -25,-124 -24,-46 -37,-59 -83,-83 -31,-15 -84,-32 -119,-38 -127,-20 -482,-156 -671,-256 -195,-103 -360,-218 -508,-352 -72,-64 -90,-77 -78,-53 13,25 114,158 151,198 5,6 56,62 112,125 143,160 319,319 472,428 221,157 482,269 633,270 46,1 62,-4 85,-23 z M 866,2662 c 32,-26 44,-55 44,-111 0,-64 -15,-96 -54,-115 -28,-14 -34,-13 -61,3 -40,23 -55,55 -55,120 0,47 4,57 34,87 38,38 61,42 92,16 z m 4029,-2 c 37,-14 69,-88 60,-141 -9,-53 -48,-99 -85,-99 -44,0 -59,9 -77,47 -32,69 -11,172 40,193 29,12 31,12 62,0 z m -3510,-55 c 74,-11 239,-65 310,-101 110,-56 221,-135 329,-234 133,-122 236,-232 344,-366 19,-23 54,-72 67,-93 12,-21 -7,-8 -125,88 -186,150 -365,256 -539,321 -107,39 -152,44 -246,26 -103,-20 -237,-20 -304,0 -105,31 -155,113 -131,219 21,93 60,133 143,145 52,7 75,7 152,-5 z m 3134,-25 c 45,-23 66,-52 82,-114 49,-195 -131,-289 -443,-229 -76,15 -95,15 -140,4 -197,-49 -469,-208 -710,-413 -21,-17 -40,-29 -43,-26 -8,8 103,151 198,255 191,209 366,351 529,432 221,108 424,144 527,91 z M 1799,1615 c 2,-2 -14,-26 -37,-52 -83,-100 -108,-176 -90,-273 12,-69 28,-98 94,-181 103,-129 198,-191 298,-193 33,0 73,2 89,7 24,6 27,5 26,-15 0,-13 -8,-42 -18,-66 -56,-138 -174,-189 -318,-139 -189,66 -322,184 -384,339 -23,58 -37,231 -25,311 17,109 151,243 267,266 39,8 87,6 98,-4 z m 2261,-29 c 55,-26 141,-109 168,-162 79,-157 39,-403 -91,-550 -93,-106 -274,-197 -393,-197 -77,-1 -143,35 -183,99 -29,45 -58,130 -48,140 3,3 22,0 43,-6 46,-16 123,-7 179,20 131,63 295,282 295,394 0,78 -54,191 -119,250 -12,11 -21,23 -21,27 0,25 106,16 170,-15 z m -2620,-10 c 0,-7 -11,-33 -24,-57 -34,-61 -86,-193 -102,-259 -16,-68 -18,-182 -3,-252 25,-117 113,-244 230,-332 72,-54 212,-125 312,-157 37,-12 67,-27 67,-34 0,-15 -113,-67 -195,-91 -85,-24 -205,-21 -280,7 -142,52 -241,153 -328,331 -157,323 -142,563 46,728 66,58 187,116 270,129 4,0 7,-5 7,-13 z m 763,-17 c 91,-23 173,-59 170,-74 -2,-6 -12,-35 -23,-66 -11,-31 -26,-96 -35,-145 -17,-100 -37,-139 -85,-171 -66,-45 -145,-20 -242,80 -78,79 -138,178 -138,227 0,65 45,115 134,151 57,23 122,23 219,-2 z m 2170,-16 c 191,-78 294,-213 312,-410 8,-84 -25,-219 -86,-360 -91,-207 -207,-332 -355,-384 -67,-24 -196,-25 -279,-4 -76,20 -195,74 -195,90 0,6 31,21 68,33 157,51 320,148 411,247 173,188 189,434 45,718 -24,48 -42,92 -39,98 7,11 41,3 118,-28 z m -630,-7 c 140,-69 126,-194 -41,-365 -91,-93 -165,-120 -232,-86 -49,25 -70,67 -96,195 -13,66 -31,135 -40,154 -9,19 -14,40 -12,48 6,14 168,74 223,82 64,9 146,-2 198,-28 z"
       id="path3725"
       style="fill:#ffb6c1;fill-opacity:1" />
  </g>
</svg>
