<?xml version="1.0" encoding="UTF-8" standalone="no"?>
<svg
   xmlns:dc="http://purl.org/dc/elements/1.1/"
   xmlns:cc="http://creativecommons.org/ns#"
   xmlns:rdf="http://www.w3.org/1999/02/22-rdf-syntax-ns#"
   xmlns:svg="http://www.w3.org/2000/svg"
   xmlns="http://www.w3.org/2000/svg"
   id="svg3438"
   preserveAspectRatio="xMidYMid meet"
   viewBox="0 0 267.000000 300.000000"
   height="300.000000pt"
   width="267.000000pt"
   version="1.0">
  <metadata
     id="metadata3444">
    <rdf:RDF>
      <cc:Work
         rdf:about="">
        <dc:format>image/svg+xml</dc:format>
        <dc:type
           rdf:resource="http://purl.org/dc/dcmitype/StillImage" />
        <dc:title></dc:title>
      </cc:Work>
    </rdf:RDF>
  </metadata>
  <defs
     id="defs3442" />
  <path
     style="fill:#550000;stroke-width:0.03023569"
     id="path3434"
     d="m 184.44358,84.488508 c -0.50077,-0.391553 -1.58291,-0.728328 -2.86764,-0.862047 -4.80079,-0.46765 -8.82967,0.06441 -15.25032,1.964972 -2.28435,0.705807 -3.70383,0.9779 -3.81226,0.761679 -0.4066,-0.810835 2.1188,-3.531676 3.29526,-3.478958 0.78428,0.01259 1.50017,-0.650806 1.10759,-1.02896 -0.39258,-0.37815 -3.0681,1.166465 -3.83763,2.195027 -0.51298,0.730775 -0.74267,0.879785 -1.04037,0.690826 -0.2706,-0.134904 -0.16304,-0.66238 0.24166,-1.474165 0.36428,-0.690036 0.76876,-1.704645 0.86276,-2.259149 0.25546,-1.244307 -0.13791,-2.29855 -0.66459,-1.730018 -0.20259,0.203065 -0.40518,0.406128 -0.45924,0.433236 -0.054,0.0271 0.0681,0.405574 0.28494,0.83802 0.31173,0.621642 0.21765,1.108535 -0.44339,2.420922 -0.82289,1.664147 -1.5658,2.341108 -1.86397,1.746496 -0.0949,-0.189195 -0.32671,-1.865629 -0.54522,-3.717864 -0.61536,-5.881271 -1.19942,-8.125212 -3.21888,-12.152351 l -1.77557,-3.608251 -1.21744,-0.404231 c -0.64929,-0.21559 -1.62293,-0.268539 -2.10958,-0.159796 -1.27063,0.366575 -2.51193,2.680258 -3.2516,6.129186 -0.33631,1.487794 -0.91571,3.232783 -1.32065,3.841739 -1.05274,1.677935 -1.40308,2.733049 -1.06424,3.408745 0.16264,0.324332 1.31326,1.40473 2.54488,2.376864 1.20459,0.985688 2.13859,1.836468 2.00345,1.904234 -0.10811,0.05421 -0.7303,-0.107321 -1.42018,-0.336384 -1.58274,-0.593111 -3.01594,-0.48326 -4.74571,0.384156 -4.67581,2.344742 -5.01935,9.214234 -0.55407,11.845762 2.46269,1.471006 4.86927,1.211272 9.38292,-1.052141 l 1.97303,-0.989406 -0.85008,1.542484 c -1.03903,1.840187 -1.33475,3.341454 -0.77978,3.84111 0.55499,0.499657 2.59531,-0.760258 3.7564,-2.289579 0.459,-0.63606 0.86418,-1.042189 0.86434,-0.906972 -0.0134,0.108189 -0.0523,1.58211 -0.11787,3.272411 -0.14427,3.826855 0.41213,5.543475 2.27981,6.974605 2.21961,1.7282 5.95181,1.88609 8.28928,0.34187 3.60754,-2.38405 4.49463,-6.955466 1.84132,-9.548554 -1.16416,-1.107427 -0.96166,-1.378103 0.378,-0.527794 0.51424,0.350964 1.66423,0.890491 2.54354,1.227517 2.1374,0.822323 3.25933,0.496491 4.60938,-1.330533 0.60754,-0.812022 1.82324,-1.895184 3.01222,-2.694362 4.93159,-3.318612 6.18629,-5.740484 3.9395,-7.590346 z" />
  <path
     d="m 62.86321,138.69629 c 0.498751,0.35457 1.106563,1.26061 1.582625,2.40932 1.749398,4.30131 2.364461,8.16483 2.373387,14.6109 -0.02416,2.30154 0.114453,3.68598 0.343722,3.72667 0.859775,0.15259 2.677033,-2.92452 2.305437,-3.99557 -0.226929,-0.7202 0.188679,-1.56286 0.645367,-1.30443 0.456689,0.25842 -0.234053,3.15114 -0.971854,4.14355 -0.533468,0.67393 -0.607905,0.92678 -0.351829,1.1496 0.198757,0.21264 0.655933,-0.0314 1.293869,-0.62767 0.536696,-0.52556 1.361844,-1.17729 1.847681,-1.41624 1.077994,-0.57729 2.158732,-0.50375 1.77873,0.1383 -0.131754,0.24267 -0.263508,0.48535 -0.273682,0.54267 -0.01017,0.0573 -0.392913,0.0485 -0.851461,-0.0329 -0.659159,-0.11698 -1.082595,0.10349 -2.112073,1.0737 -1.309613,1.21611 -1.730302,2.08743 -1.099796,2.19933 0.200611,0.0356 1.811101,-0.2107 3.580145,-0.51755 5.595585,-1.04671 7.826403,-1.1238 12.096621,-0.36596 l 3.816764,0.6478 0.70719,1.01235 c 0.37717,0.53993 0.693305,1.42377 0.726563,1.90266 0.01057,1.27304 -1.783514,3.05353 -4.762792,4.68281 -1.280465,0.71874 -2.731513,1.73238 -3.182233,2.27318 -1.25924,1.432 -2.136618,2.0449 -2.853097,1.91774 -0.343911,-0.0611 -1.656662,-0.82612 -2.891752,-1.69568 -1.240172,-0.84089 -2.281591,-1.46914 -2.307022,-1.32584 -0.02034,0.11463 0.29951,0.64438 0.70025,1.21806 0.981753,1.29758 1.273826,2.65014 0.948311,4.48433 -0.879907,4.95804 -7.124082,7.16081 -10.777995,3.76309 -2.033341,-1.86851 -2.454336,-4.16036 -1.604947,-8.94644 l 0.371291,-2.09213 -1.18989,1.2078 c -1.412704,1.46387 -2.716751,2.14886 -3.330133,1.77394 -0.613384,-0.37491 -0.01096,-2.60338 1.081404,-4.09455 0.460893,-0.59812 0.724402,-1.08347 0.599589,-1.04651 -0.09615,0.0421 -1.445472,0.48253 -2.987102,1.0071 -3.491428,1.18365 -5.228102,1.1415 -7.061311,-0.18894 -2.203931,-1.57361 -3.374174,-4.97398 -2.590998,-7.55468 1.209442,-3.98314 5.183968,-6.0566 8.30499,-4.32023 1.341408,0.77017 1.535565,0.50901 0.383232,-0.49367 -0.465009,-0.37813 -1.278523,-1.29112 -1.83087,-2.00995 -1.345525,-1.74644 -1.352866,-2.87109 -0.03768,-4.61833 0.582469,-0.78348 1.248183,-2.20256 1.659185,-3.51902 1.708283,-5.46139 3.598512,-7.28394 5.922161,-5.71865 z"
     id="path3491"
     style="fill:#550000;stroke-width:0.02910703" />
  <path
     style="fill:#550000;stroke-width:0.02919647"
     id="path3493"
     d="m 72.547712,21.27714 c -0.497613,-0.359405 -1.554181,-0.644573 -2.798771,-0.726352 -4.649625,-0.274676 -8.517643,0.386899 -14.64321,2.456943 -2.178287,0.765076 -3.537966,1.079828 -3.650547,0.875185 -0.422166,-0.76745 1.914602,-3.485748 3.05174,-3.478147 0.757236,-0.01665 1.423612,-0.683154 1.030896,-1.033607 -0.392715,-0.350452 -2.917594,1.238399 -3.622313,2.259185 -0.468104,0.724015 -0.684268,0.876246 -0.978478,0.704862 -0.266067,-0.12022 -0.181681,-0.633148 0.178978,-1.431348 0.326132,-0.679235 0.679093,-1.673139 0.74941,-2.211657 0.200738,-1.210054 -0.217605,-2.212867 -0.704913,-1.644899 -0.188014,0.203396 -0.376035,0.406791 -0.427192,0.434935 -0.05115,0.02815 0.08061,0.388848 0.305762,0.798148 0.32366,0.588375 0.250782,1.061653 -0.338796,2.352329 -0.732826,1.636043 -1.424784,2.316584 -1.734369,1.753798 -0.09851,-0.179075 -0.38386,-1.788184 -0.662837,-3.567423 -0.81008,-5.652387 -1.456184,-7.796138 -3.55293,-11.6077722 L 42.904125,3.7949181 41.714524,3.4496332 c -0.634462,-0.1841454 -1.575896,-0.199423 -2.041483,-0.076605 -1.212585,0.4004591 -2.325253,2.6786476 -2.912135,6.0338268 -0.2698,1.4479767 -0.764695,3.1530837 -1.133039,3.7555717 -0.954112,1.657809 -1.253355,2.688803 -0.901544,3.328343 0.16886,0.306978 1.318864,1.307163 2.543038,2.199903 1.198607,0.906816 2.131147,1.693413 2.003236,1.763767 -0.102328,0.0563 -0.708647,-0.07669 -1.382752,-0.272354 -1.549051,-0.5141 -2.927936,-0.355387 -4.565143,0.545231 -4.425592,2.434474 -4.504429,9.075673 -0.09896,11.450694 2.430413,1.32884 4.743039,0.989708 9.015145,-1.360336 l 1.867447,-1.027267 -0.763537,1.519653 c -0.9349,1.813857 -1.165043,3.273348 -0.61115,3.735074 0.553892,0.461719 2.476319,-0.829046 3.540437,-2.347438 0.419507,-0.630639 0.795542,-1.037423 0.800672,-0.90695 -0.009,0.10489 0.0078,1.528546 0.0067,3.161983 0.0015,3.69794 0.601562,5.333894 2.456383,6.646142 2.20531,1.585954 5.812435,1.601052 8.011137,0.02501 3.393336,-2.433122 4.081187,-6.876836 1.425568,-9.281398 -1.164079,-1.025774 -0.978627,-1.294401 0.345322,-0.523187 0.509105,0.319747 1.638612,0.798058 2.499483,1.090916 2.092684,0.714883 3.163283,0.359219 4.398792,-1.45339 0.556357,-0.805884 1.689582,-1.89577 2.807477,-2.710652 4.636574,-3.383606 5.758197,-5.766685 3.522173,-7.469028 z" />
  <path
     d="m 77.194922,267.08323 c -0.590438,-0.15875 -1.474684,-0.79624 -2.319873,-1.70679 -3.133674,-3.4211 -5.052632,-6.82634 -7.301414,-12.86139 -0.777306,-2.1643 -1.388325,-3.41294 -1.61723,-3.37137 -0.8584,0.15589 -1.49117,3.66989 -0.770833,4.544 0.462883,0.59575 0.366456,1.52953 -0.151152,1.4462 -0.517612,-0.0833 -0.875981,-3.03309 -0.529794,-4.21913 0.265473,-0.8167 0.247321,-1.07942 -0.06999,-1.19913 -0.260087,-0.13011 -0.603511,0.25739 -0.993833,1.03765 -0.320071,0.67882 -0.866484,1.5761 -1.238522,1.96881 -0.80913,0.91543 -1.847038,1.22215 -1.714237,0.48867 0.03908,-0.27312 0.07814,-0.54622 0.06775,-0.60345 -0.01038,-0.0572 0.351187,-0.182 0.809002,-0.26515 0.658107,-0.11952 0.978115,-0.47321 1.605234,-1.73983 0.804062,-1.59434 0.895292,-2.55673 0.265797,-2.44241 -0.200292,0.0364 -1.623263,0.82684 -3.173709,1.72912 -4.877683,2.92531 -6.940538,3.77286 -11.203929,4.54716 l -3.800381,0.71976 -1.014299,-0.7025 c -0.540958,-0.37467 -1.144278,-1.0927 -1.341876,-1.52974 -0.452362,-1.18879 0.609329,-3.48017 2.833813,-6.04184 0.94963,-1.1183 1.956549,-2.57212 2.190781,-3.23536 0.681843,-1.77903 1.29068,-2.6581 2.006014,-2.78801 0.34336,-0.0624 1.838954,0.19805 3.298053,0.58361 1.453956,0.35665 2.647827,0.58318 2.621853,0.44006 -0.02078,-0.11449 -0.50451,-0.49955 -1.07928,-0.89763 -1.370617,-0.87426 -2.114308,-2.0397 -2.446891,-3.87096 -0.899011,-4.95011 4.184415,-9.18373 8.788024,-7.271 2.554095,1.04355 3.745015,3.04405 4.612846,7.82249 l 0.379354,2.08877 0.694803,-1.54493 c 0.814519,-1.86225 1.797964,-2.95713 2.502837,-2.81912 0.704866,0.13805 0.915114,2.43482 0.410147,4.21129 -0.223839,0.72046 -0.30198,1.26669 -0.197927,1.18868 0.07545,-0.0728 1.186298,-0.95438 2.448045,-1.98158 2.859088,-2.32223 4.50051,-2.88636 6.68013,-2.27726 2.611391,0.70802 4.889421,3.48647 5.052767,6.17605 0.251483,4.15145 -2.750862,7.47509 -6.27788,6.93336 -1.524214,-0.25517 -1.615307,0.0569 -0.1874,0.59562 0.567008,0.1926 1.64636,0.76506 2.413598,1.24641 1.867372,1.16827 2.265141,2.2192 1.64045,4.31299 -0.27329,0.93635 -0.403668,2.49699 -0.331098,3.87301 0.297995,5.70952 -0.83915,8.07372 -3.559798,7.41509 z"
     id="path3495"
     style="fill:#550000;stroke-width:0.02908142" />
  <g
     transform="matrix(-0.05297407,-0.00940134,0.00940134,-0.05297407,180.13717,127.07238)"
     id="g3503"
     style="fill:#ff0000;stroke:none">
    <path
       d="m 1076.3966,761.93247 c -15,-19 -35,-60 -46,-92 -11,-32 -31.00001,-73 -45.00002,-91 -13.99999,-18 -24.99999,-41 -24.99999,-51 0,-10 21,-40 48.00001,-67 39,-41 43,-48 22,-42 -84.00001,27 -146.00001,9 -188.00001,-54 -20,-29 -23,-45 -20,-93 4,-49 9,-62 38,-92 44,-45 84,-52 168.00001,-30 37,10 73,20 81,23 8,3 3,-11 -13,-34 -30,-45.000004 -34,-74.000004 -8,-74.000004 20,0 66,29 88,56.000004 15,18 15,18 9,-6 -3,-14 -8,-55.000004 -12,-92.000004 -5,-57 -3,-71 16,-101 61,-98.999996 232,-83.999996 275,23 21,52.9999999 20,67 -5,114 l -21,40 29,-19 c 15,-10 37,-24 48,-32 32,-21 62,-15 101.9999,21 21,18 61.0001,45.000004 88.0001,59.000004 94.9999,48 131,110 87,150 -42,38 -231,48 -386,21 -48,-8 -91,-12 -94,-9 -10,10 55,68 79,69 12,0 24,7 27,14 8,26 -44,7 -85,-31 -32,-28 -38,-16 -14,24 22,36 28,79 10,79 -6,0 -9,-10 -8,-22 3,-27 -24,-83 -44,-91 -12,-4 -15,19 -19,123 -11,263 -101,414 -182,307 z"
       id="path3501"
       style="fill:#ff0000;stroke-width:0.99999994" />
  </g>
  <g
     style="fill:#ff0000;stroke:none"
     id="g3507"
     transform="matrix(-0.02293235,-0.00406982,0.00406982,-0.02293235,71.077466,295.43868)">
    <path
       style="fill:#ff0000;stroke-width:0.99999994"
       id="path3505"
       d="m 1076.3966,761.93247 c -15,-19 -35,-60 -46,-92 -11,-32 -31.00001,-73 -45.00002,-91 -13.99999,-18 -24.99999,-41 -24.99999,-51 0,-10 21,-40 48.00001,-67 39,-41 43,-48 22,-42 -84.00001,27 -146.00001,9 -188.00001,-54 -20,-29 -23,-45 -20,-93 4,-49 9,-62 38,-92 44,-45 84,-52 168.00001,-30 37,10 73,20 81,23 8,3 3,-11 -13,-34 -30,-45.000004 -34,-74.000004 -8,-74.000004 20,0 66,29 88,56.000004 15,18 15,18 9,-6 -3,-14 -8,-55.000004 -12,-92.000004 -5,-57 -3,-71 16,-101 61,-98.999996 232,-83.999996 275,23 21,52.9999999 20,67 -5,114 l -21,40 29,-19 c 15,-10 37,-24 48,-32 32,-21 62,-15 101.9999,21 21,18 61.0001,45.000004 88.0001,59.000004 94.9999,48 131,110 87,150 -42,38 -231,48 -386,21 -48,-8 -91,-12 -94,-9 -10,10 55,68 79,69 12,0 24,7 27,14 8,26 -44,7 -85,-31 -32,-28 -38,-16 -14,24 22,36 28,79 10,79 -6,0 -9,-10 -8,-22 3,-27 -24,-83 -44,-91 -12,-4 -15,19 -19,123 -11,263 -101,414 -182,307 z" />
  </g>
  <g
     transform="matrix(0.03538898,0.02674368,0.02762059,-0.03426542,27.291297,183.62264)"
     id="g3511"
     style="fill:#ff0000;stroke:none">
    <path
       d="m 1076.3966,761.93247 c -15,-19 -35,-60 -46,-92 -11,-32 -31.00001,-73 -45.00002,-91 -13.99999,-18 -24.99999,-41 -24.99999,-51 0,-10 21,-40 48.00001,-67 39,-41 43,-48 22,-42 -84.00001,27 -146.00001,9 -188.00001,-54 -20,-29 -23,-45 -20,-93 4,-49 9,-62 38,-92 44,-45 84,-52 168.00001,-30 37,10 73,20 81,23 8,3 3,-11 -13,-34 -30,-45.000004 -34,-74.000004 -8,-74.000004 20,0 66,29 88,56.000004 15,18 15,18 9,-6 -3,-14 -8,-55.000004 -12,-92.000004 -5,-57 -3,-71 16,-101 61,-98.999996 232,-83.999996 275,23 21,52.9999999 20,67 -5,114 l -21,40 29,-19 c 15,-10 37,-24 48,-32 32,-21 62,-15 101.9999,21 21,18 61.0001,45.000004 88.0001,59.000004 94.9999,48 131,110 87,150 -42,38 -231,48 -386,21 -48,-8 -91,-12 -94,-9 -10,10 55,68 79,69 12,0 24,7 27,14 8,26 -44,7 -85,-31 -32,-28 -38,-16 -14,24 22,36 28,79 10,79 -6,0 -9,-10 -8,-22 3,-27 -24,-83 -44,-91 -12,-4 -15,19 -19,123 -11,263 -101,414 -182,307 z"
       id="path3509"
       style="fill:#ff0000;stroke-width:0.99999994" />
  </g>
  <g
     style="fill:#ff0000;stroke:none"
     id="g3515"
     transform="matrix(0.02924714,0.041868,-0.041868,0.02924714,8.8302182,35.767771)">
    <path
       style="fill:#ff0000;stroke-width:0.88489223"
       id="path3513"
       d="m 253.88405,45.118998 c 2.50285,-21.27427 15.64286,-59.44275 28.78285,-86.34841 13.13992,-26.90574 26.27993,-65.074208 28.78278,-85.097048 2.50284,-20.02283 10.0114,-41.29708 16.26854,-47.55422 6.25713,-6.25713 38.1685,-11.88857 71.95702,-11.88856 50.0571,-1.25142 56.9399,-3.12854 40.0457,-12.51422 -69.45422,-35.66569 -96.98561,-85.72276 -83.84562,-151.42266 5.63142,-30.65995 13.76569,-42.54851 45.67707,-70.70561 33.16285,-28.1571 44.42565,-33.16281 81.34275,-33.78852 55.6885,-0.62571 85.097,20.02283 123.8913,86.34847 16.8942,29.40851 33.1627,58.19132 36.2913,65.07413 3.1286,6.88289 8.76,-5.00569 13.14,-29.40852 9.3857,-46.92846 25.0285,-67.57702 41.2971,-51.30847 12.5143,12.5143 23.1514,59.44277 20.0228,90.10271 -1.8772,20.64855 -1.8772,20.64855 9.3857,1.87718 6.8829,-10.63714 29.4085,-39.41998 50.057,-65.07425 32.5372,-38.79418 42.5486,-46.30273 73.2085,-53.18562 100.1142,-23.77705 197.72536,92.60557 157.67976,186.46259 -20.02286,46.30276 -29.40856,54.43703 -74.45986,68.20273 l -38.1685,11.88858 30.0342,6.25715 c 15.6429,3.12858 38.1685,8.13426 50.0571,10.0114 33.16276,6.88287 48.17986,29.408498 50.68266,76.962648 1.8772,24.40286 10.0114,66.32567 18.1457,91.97992 29.4085,89.476962 13.14,150.796922 -39.4199,148.294112 -50.05706,-2.50287 -174.57396,-114.505532 -254.66536,-228.385422 -25.0285,-35.03993 -49.4312,-64.448408 -53.1855,-64.448418 -12.5143,1e-5 -8.1343,76.962758 6.2571,92.6055782 7.5086,7.50855 10.6371,19.3971 8.1343,25.6542498 -11.2629,21.27423 -31.9114,-23.1514198 -33.7886,-72.58279 -2.5028,-37.54275 -13.7657,-33.78851 -23.7771,6.25713 -8.7599,36.29143 -31.9114,66.95134 -43.1742,55.6884702 -3.7543,-3.75424 0.6257,-11.88853 8.76,-18.7713702 18.7714,-15.01711 36.9171,-66.95132 29.4085,-84.47133 -5.0057,-10.011398 -21.2742,2.50291 -88.8513,65.07423 C 388.41243,124.58461 237.61552,162.75312 253.88405,45.118998 Z" />
  </g>
  <g
     transform="matrix(-0.00492901,-0.03074596,-0.03074596,0.00492901,107.43344,63.218223)"
     id="g3519"
     style="fill:#ff0000;stroke:none">
    <path
       d="m 1076.3966,761.93247 c -15,-19 -35,-60 -46,-92 -11,-32 -31.00001,-73 -45.00002,-91 -13.99999,-18 -24.99999,-41 -24.99999,-51 0,-10 21,-40 48.00001,-67 39,-41 43,-48 22,-42 -84.00001,27 -146.00001,9 -188.00001,-54 -20,-29 -23,-45 -20,-93 4,-49 9,-62 38,-92 44,-45 84,-52 168.00001,-30 37,10 73,20 81,23 8,3 3,-11 -13,-34 -30,-45.000004 -34,-74.000004 -8,-74.000004 20,0 66,29 88,56.000004 15,18 15,18 9,-6 -3,-14 -8,-55.000004 -12,-92.000004 -5,-57 -3,-71 16,-101 61,-98.999996 232,-83.999996 275,23 21,52.9999999 20,67 -5,114 l -21,40 29,-19 c 15,-10 37,-24 48,-32 32,-21 62,-15 101.9999,21 21,18 61.0001,45.000004 88.0001,59.000004 94.9999,48 131,110 87,150 -42,38 -231,48 -386,21 -48,-8 -91,-12 -94,-9 -10,10 55,68 79,69 12,0 24,7 27,14 8,26 -44,7 -85,-31 -32,-28 -38,-16 -14,24 22,36 28,79 10,79 -6,0 -9,-10 -8,-22 3,-27 -24,-83 -44,-91 -12,-4 -15,19 -19,123 -11,263 -101,414 -182,307 z"
       id="path3517"
       style="fill:#ff0000;stroke-width:0.99999994" />
  </g>
  <path
     d="m 14.605036,76.597897 c -1.11457,0.21612 -2.816614,2.45972 -3.839069,5.07227 -0.667391,1.66146 -1.1272985,2.38699 -2.4662005,3.86719 -1.179344,1.28083 -1.145721,1.90769 0.22086,3.53688 2.2367495,2.67356 2.5609995,3.06225 2.4664985,3.12826 -0.04725,0.033 -0.657268,-0.26152 -1.3698625,-0.67773 -1.121969,-0.67514 -1.375685,-0.76156 -2.390889,-0.75546 -2.218113,0.0203 -3.973165,0.92989 -5.214347,2.67578 -1.414981,2.02548 -1.330671,5.1656 0.178278,7.275373 0.729719,1.01945 2.294064,2.00076 3.538058,2.22153 1.003225,0.17804 3.684461,-0.23607 5.9362635,-0.91265 0.830105,-0.24591 1.542084,-0.40931 1.575092,-0.36205 0.033,0.0473 -0.224612,0.33267 -0.586114,0.62035 -1.362186,1.14491 -2.372658,3.57333 -1.616368,3.9766 0.679589,0.36896 2.716844,-0.61475 3.872566,-1.87909 l 0.765732,-0.81613 -0.389711,1.37958 c -0.215572,0.74821 -0.549949,2.28249 -0.765862,3.38247 -0.316915,1.78574 -0.313696,2.11745 0.004,3.12588 0.718974,2.3628 2.770344,3.86516 5.501711,4.10154 3.223596,0.26165 6.247632,-1.85081 6.760395,-4.74009 0.284868,-1.60516 0.142841,-2.43752 -0.681038,-3.74274 -0.385404,-0.6272 -0.661106,-1.17284 -0.613854,-1.20584 0.04726,-0.033 0.701917,0.4764 1.455602,1.12757 2.722197,2.38718 3.759725,2.48852 6.235863,0.54788 1.006505,-0.77341 2.159278,-1.43807 3.087452,-1.77007 2.549548,-0.95488 4.926325,-2.68549 5.115047,-3.74891 0.135313,-0.76245 -0.24489,-1.88543 -0.8358,-2.404243 -0.843326,-0.72916 -3.49505,-1.5309 -6.445825,-1.9304 -2.70644,-0.37684 -5.464034,-0.34881 -10.259501,0.0833 -1.512295,0.12485 -2.766014,0.1921 -2.795458,0.12478 -0.383144,-0.52331 2.768744,-3.00631 3.395262,-2.68816 0.493186,0.25309 1.39773,-0.0624 1.47963,-0.52387 0.153116,-0.86277 -2.053701,-0.32306 -3.510384,0.88784 -0.557619,0.45984 -1.117502,0.8158 -1.257953,0.79088 -0.481547,-0.0855 -0.433954,-0.47025 0.182897,-1.14724 0.847293,-0.92584 1.291992,-1.79896 1.473596,-2.82224 0.16736,-0.94303 -0.114501,-1.22071 -0.722937,-0.7078 -0.243377,0.20516 -0.278986,0.40581 -0.174482,0.98316 0.09738,0.61747 0.03815,0.83462 -0.577755,1.73944 -0.619462,0.92488 -1.741831,1.88469 -2.102991,1.8206 -0.08026,-0.0143 -0.06499,-1.14984 0.05676,-2.53559 0.267811,-3.49155 0.317791,-6.33878 0.167402,-8.29024 -0.213096,-2.9974 -1.528735,-7.24599 -2.441638,-8.04959 -0.647542,-0.54954 -1.726161,-0.88585 -2.410952,-0.75902 z"
     id="path3521"
     style="fill:#ff00ff;stroke:none;stroke-width:0.02037797" />
  <path
     style="fill:#ff00ff;stroke:none;stroke-width:0.01905632"
     id="path3523"
     d="m 30.759674,199.9724 c -1.02807,0.26511 -3.36652,-0.94608 -5.27923,-2.74179 -1.23088,-1.13507 -1.91066,-1.5631 -3.63583,-2.27542 -1.51037,-0.60805 -1.73373,-1.15094 -1.23393,-3.07564 0.81523,-3.15617 0.93296,-3.61464 0.82664,-3.63243 -0.0532,-0.009 -0.45004,0.48481 -0.88468,1.1225 -0.67638,1.02076 -0.85594,1.19563 -1.71574,1.5982 -1.88137,0.8737 -3.728851,0.81036 -5.478201,-0.16559 -2.00843,-1.14228 -3.19833,-3.82801 -2.77132,-6.21575 0.20684,-1.154 1.13384,-2.61097 2.09576,-3.29703 0.77573,-0.55326 3.206371,-1.28036 5.379771,-1.61332 0.79979,-0.1257 1.46669,-0.27366 1.47559,-0.32681 0.009,-0.0532 -0.32329,-0.19075 -0.74412,-0.28851 -1.61019,-0.41982 -3.438831,-2.06484 -2.962101,-2.70914 0.425751,-0.58452 2.541311,-0.57195 4.025111,0.0316 l 0.97443,0.38172 -0.88318,-1.00857 c -0.48253,-0.54529 -1.3811,-1.70672 -2.00521,-2.54896 -0.98481,-1.3808 -1.11531,-1.66223 -1.25196,-2.64146 -0.34175,-2.28417 0.7873,-4.37679 2.99903,-5.67336 2.6173,-1.51559 6.01952,-0.94608 7.61292,1.28802 0.88522,1.24117 1.09957,2.00115 0.92797,3.4343 -0.0736,0.68446 -0.0873,1.25598 -0.0341,1.26488 0.0532,0.009 0.40144,-0.68422 0.77642,-1.53683 1.34022,-3.10927 2.17572,-3.61154 5.04623,-2.96709 1.16062,0.24893 2.40109,0.34729 3.31827,0.25489 2.53662,-0.21751 5.23887,0.28948 5.82533,1.11175 0.42048,0.58956 0.5504,1.69063 0.25973,2.36608 -0.41936,0.95447 -2.33679,2.69652 -4.66831,4.21896 -2.13429,1.40518 -4.47436,2.489 -8.69774,4.04998 -1.32729,0.50192 -2.41308,0.94863 -2.41091,1.01731 -0.1134,0.59582 3.54561,1.42691 3.94694,0.90661 0.31485,-0.41181 1.20546,-0.50865 1.45996,-0.15182 0.4758,0.66713 -1.60462,1.09763 -3.32114,0.66001 -0.65559,-0.16439 -1.27138,-0.24014 -1.37998,-0.16269 -0.37235,0.26557 -0.17763,0.57141 0.6152,0.8954 1.08737,0.44161 1.81358,1.00037 2.37791,1.79161 0.52007,0.72919 0.39356,1.07689 -0.32627,0.88809 -0.28793,-0.0755 -0.39858,-0.23067 -0.5422,-0.76022 -0.16575,-0.56057 -0.30298,-0.72017 -1.1865,-1.23695 -0.89459,-0.53229 -2.22792,-0.89211 -2.50718,-0.69293 -0.0621,0.0443 0.4069,0.99715 1.06625,2.11853 1.62842,2.84111 2.81411,5.22557 3.47083,6.93399 1.02381,2.61693 1.61901,6.7333 1.17079,7.77858 -0.32615,0.72415 -1.102,1.44134 -1.73124,1.60926 z" />
  <path
     d="m 109.79563,130.49399 c 0.62565,0.74455 0.54981,3.15565 -0.17734,5.44617 -0.45101,1.46592 -0.53581,2.19685 -0.442,3.90395 0.095,1.48839 -0.26523,1.88764 -2.05313,2.23594 -2.93011,0.57474 -3.35547,0.65878 -3.32812,0.75366 0.0138,0.0475 0.57855,0.18012 1.27735,0.28693 1.11087,0.15511 1.32638,0.23431 1.99905,0.78548 1.46595,1.20886 2.1443,2.76033 2.02984,4.59168 -0.1494,2.11117 -1.89781,4.15653 -4.03948,4.74808 -1.03527,0.28553 -2.60568,0.0958 -3.55295,-0.42754 -0.76392,-0.42212 -2.326007,-2.14278 -3.460696,-3.80679 -0.42019,-0.61108 -0.80618,-1.10359 -0.85362,-1.08991 -0.0475,0.0137 -0.0297,0.34256 0.0559,0.72892 0.28998,1.49641 -0.34593,3.65788 -1.06681,3.51881 -0.65133,-0.12058 -1.47767,-1.87345 -1.56581,-3.33811 l -0.07,-0.95609 -0.484,1.1286 c -0.25966,0.61437 -0.86389,1.81612 -1.31293,2.66489 -0.751336,1.35978 -0.932232,1.57892 -1.687253,2.0791 -1.752069,1.18576 -3.927568,1.08057 -5.873585,-0.234 -2.287363,-1.56303 -3.162427,-4.59926 -1.946776,-6.79935 0.675371,-1.22229 1.218507,-1.69996 2.470464,-2.12501 0.594619,-0.2099 1.072241,-0.42464 1.058565,-0.47207 -0.01366,-0.0475 -0.724095,-0.0611 -1.576842,-0.0337 -3.099001,0.12243 -3.84443,-0.36923 -4.447277,-2.99578 -0.253367,-1.05739 -0.662721,-2.12118 -1.101815,-2.84243 -1.182964,-2.00978 -1.832837,-4.44294 -1.385406,-5.2527 0.320796,-0.58058 1.179138,-1.12341 1.852176,-1.15039 0.954461,-0.031 3.152145,0.86413 5.332137,2.18841 2.005105,1.20763 3.826091,2.71238 6.786175,5.58444 0.939657,0.89811 1.738177,1.61855 1.794047,1.5896 0.53714,-0.14198 -0.22336,-3.49383 -0.81197,-3.61962 -0.4648,-0.0972 -0.897026,-0.7948 -0.702857,-1.1462 0.363007,-0.65698 1.541497,0.89169 1.858837,2.48294 0.12347,0.60669 0.30443,1.14542 0.41138,1.20452 0.36669,0.20258 0.54235,-0.0792 0.49645,-0.86245 -0.0652,-1.07307 0.10923,-1.89407 0.53977,-2.67327 0.39677,-0.71809 0.7341,-0.75108 0.8628,-0.0817 0.0515,0.26777 -0.033,0.42054 -0.41367,0.74865 -0.3976,0.35866 -0.47517,0.53516 -0.55272,1.46953 -0.086,0.94966 0.14409,2.19358 0.4191,2.34554 0.0611,0.0337 0.66294,-0.73057 1.32866,-1.71887 1.703329,-2.46909 3.204456,-4.39179 4.356246,-5.61008 1.75724,-1.88091 4.92284,-4.00073 5.96375,-4.04382 0.72731,-0.0169 1.62672,0.34043 2.01432,0.79391 z"
     id="path3525"
     style="fill:#ff00ff;stroke:none;stroke-width:0.01745566" />
  <path
     style="fill:#ff00ff;stroke:none;stroke-width:0.02728473"
     id="path3527"
     d="m 117.05722,20.246847 c -1.28421,0.806793 -2.28255,4.411373 -2.24596,8.144875 0.002,2.382602 -0.20793,3.504501 -1.13652,5.987011 -0.82916,2.158331 -0.47207,2.919171 2.05548,4.278465 4.14046,2.233494 4.74125,2.558656 4.65637,2.686198 -0.0426,0.06376 -0.953,-0.0065 -2.05297,-0.178051 -1.74184,-0.294665 -2.10241,-0.279157 -3.3681,0.219195 -2.76188,1.097474 -4.49762,3.073733 -5.17042,5.838422 -0.74932,3.195378 0.93587,7.047919 3.88314,8.934254 1.42486,0.911201 3.87361,1.371604 5.53936,1.043932 1.34335,-0.264258 4.48588,-2.073912 6.95968,-4.001401 0.91372,-0.706199 1.7213,-1.252991 1.78632,-1.210354 0.0651,0.04268 -0.1133,0.521064 -0.42046,1.052473 -1.12639,2.078057 -1.16746,5.577457 -0.0194,5.711837 1.03496,0.128923 3.0861,-2.075636 3.89435,-4.201958 l 0.54638,-1.382081 0.20704,1.898883 c 0.10703,1.031894 0.46104,3.095831 0.74462,4.56404 0.50237,2.367272 0.67328,2.776996 1.57775,3.873684 2.08728,2.58196 5.40683,3.45296 8.93928,2.425572 4.16032,-1.23401 6.87683,-5.315108 6.06402,-9.145297 -0.45155,-2.127888 -1.04782,-3.091235 -2.73414,-4.311218 -0.7972,-0.591314 -1.41629,-1.134557 -1.37385,-1.198325 0.0426,-0.06376 1.11692,0.251342 2.38645,0.69434 4.60307,1.643735 5.95073,1.267809 8.06892,-2.335389 0.86878,-1.445502 1.97504,-2.826897 2.96799,-3.687233 2.7059,-2.416475 4.80559,-5.711229 4.50642,-7.120959 -0.21448,-1.010744 -1.25464,-2.219289 -2.25413,-2.576852 -1.42082,-0.496343 -5.13816,-0.208453 -9.02689,0.722755 -3.57197,0.841187 -7.00417,2.209069 -12.77991,5.063162 -1.82719,0.885893 -3.36019,1.57538 -3.43085,1.506155 -0.74211,-0.463607 1.94773,-5.065936 2.89077,-4.974367 0.7437,0.07538 1.71544,-0.75307 1.58563,-1.364828 -0.24273,-1.143743 -2.72917,0.592239 -3.94044,2.797866 -0.46553,0.83971 -0.98616,1.551722 -1.17424,1.588716 -0.6448,0.126842 -0.7789,-0.373243 -0.34858,-1.51083 0.59311,-1.557532 0.70958,-2.855061 0.42172,-4.211582 -0.26529,-1.250126 -0.75726,-1.45816 -1.2596,-0.528058 -0.20101,0.372009 -0.14445,0.638032 0.27659,1.303325 0.43236,0.718512 0.46758,1.016379 0.15308,2.435984 -0.30885,1.446195 -1.22867,3.178819 -1.71225,3.27396 -0.10745,0.02114 -0.65973,-1.394227 -1.20475,-3.171208 -1.42195,-4.458509 -2.79196,-8.012833 -3.96171,-10.359655 -1.77437,-3.613331 -5.5561,-8.244945 -7.1013,-8.799958 -1.08575,-0.368302 -2.60295,-0.263822 -3.39497,0.224485 z" />
  <path
     style="fill:#ff00ff;stroke:none;stroke-width:0.02144196"
     id="path3531"
     d="m 26.856982,228.12601 c -1.180023,-0.18611 -3.668572,1.4225 -5.617273,3.63988 -1.25625,1.40398 -1.971474,1.95666 -3.826922,2.94041 -1.626097,0.84383 -1.817739,1.47595 -1.050506,3.57777 1.253271,3.44707 1.434549,3.94788 1.31739,3.97927 -0.05857,0.0156 -0.556306,-0.4945 -1.111848,-1.16187 -0.867573,-1.07035 -1.087534,-1.24686 -2.093918,-1.60506 -2.201331,-0.77576 -4.263702,-0.50569 -6.1178134,0.77595 -2.1263433,1.49584 -3.1695657,4.63216 -2.4339228,7.26043 0.3560425,1.27021 1.551351,2.80212 2.7026468,3.46682 0.9284632,0.53605 3.7291954,1.08842 6.1993184,1.22708 0.909338,0.0546 1.672217,0.1484 1.68791,0.20698 0.01573,0.0585 -0.341533,0.24848 -0.802326,0.40334 -1.758186,0.64377 -3.628971,2.6833 -3.025571,3.35355 0.539842,0.60879 2.907941,0.36667 4.50475,-0.4693 l 1.050237,-0.53256 -0.880445,1.22481 c -0.481676,0.66275 -1.362904,2.06041 -1.971125,3.071 -0.954164,1.65266 -1.07,1.98194 -1.117495,3.09343 -0.136558,2.59513 1.353552,4.81719 3.970486,6.03098 3.094756,1.41537 6.843911,0.41079 8.387737,-2.26319 0.857672,-1.48554 1.015826,-2.35984 0.669168,-3.94648 -0.1562,-0.75868 -0.233141,-1.39732 -0.174562,-1.41301 0.05857,-0.0156 0.523378,0.72307 1.035264,1.63758 1.836196,3.33797 2.826116,3.81046 5.971666,2.77925 1.273071,-0.4039 2.651816,-0.64776 3.689034,-0.64315 2.864494,-0.0298 5.8364,-0.8889 6.404612,-1.87307 0.407396,-0.70564 0.434232,-1.95286 0.03584,-2.67804 -0.572572,-1.02382 -2.907889,-2.76826 -5.683333,-4.22211 -2.541882,-1.34377 -5.279623,-2.30543 -10.178118,-3.59851 -1.540688,-0.4191 -2.804935,-0.80239 -2.809913,-0.87954 -0.191236,-0.6551 3.817328,-1.98033 4.322904,-1.44085 0.397032,0.42731 1.404957,0.43976 1.651538,0.0126 0.461003,-0.79848 -1.915512,-1.0564 -3.790856,-0.38124 -0.716562,0.25479 -1.398081,0.40601 -1.528069,0.33096 -0.445666,-0.25731 -0.260536,-0.62084 0.592527,-1.06917 1.170281,-0.61181 1.923412,-1.3159 2.470181,-2.26294 0.503882,-0.87275 0.324712,-1.24855 -0.46115,-0.9595 -0.314348,0.11563 -0.421556,0.30131 -0.525332,0.9099 -0.125213,0.64572 -0.261714,0.83926 -1.195563,1.51329 -0.944577,0.6926 -2.399136,1.23931 -2.733386,1.04634 -0.07428,-0.0429 0.348256,-1.16069 0.965867,-2.48772 1.517608,-3.35761 2.588576,-6.15602 3.139967,-8.14028 0.864604,-3.04136 1.087546,-7.71589 0.472864,-8.83831 -0.443349,-0.77592 -1.389612,-1.49555 -2.112483,-1.61579 z" />
  <path
     d="m 69.571585,36.628152 c -1.562759,0.601059 -3.456091,4.29757 -4.267518,8.354717 -0.540952,2.584553 -1.0218,3.756617 -2.584553,6.251012 -1.382434,2.163812 -1.172069,3.065398 1.232166,5.078944 3.936939,3.305823 4.507946,3.78667 4.387732,3.906882 -0.06013,0.0601 -1.0218,-0.210371 -2.163814,-0.631111 -1.803173,-0.691219 -2.193863,-0.751324 -3.666456,-0.480847 -3.215663,0.601058 -5.529739,2.374178 -6.882126,5.22921 -1.532697,3.305821 -0.601055,7.843821 2.133759,10.518525 1.322332,1.292283 3.846781,2.314084 5.710064,2.314084 1.502641,0 5.289311,-1.292276 8.384767,-2.855036 1.142014,-0.571007 2.133759,-0.991745 2.193863,-0.931642 0.06013,0.06013 -0.240421,0.54096 -0.691214,1.051856 -1.682966,2.013545 -2.524449,5.800215 -1.322332,6.190905 1.081904,0.360634 3.78667,-1.592808 5.13905,-3.726567 l 0.901586,-1.382435 -0.210365,2.103704 c -0.120214,1.142014 -0.210373,3.456091 -0.240428,5.109002 0,2.67471 0.09017,3.155559 0.811435,4.537994 1.652911,3.245718 5.018835,4.898629 9.045933,4.537994 4.748359,-0.450793 8.59514,-4.297566 8.59514,-8.625188 0,-2.404242 -0.420745,-3.576304 -1.953442,-5.259271 -0.721277,-0.811427 -1.262228,-1.532696 -1.202118,-1.592799 0.06013,-0.06013 1.142015,0.510896 2.404235,1.26222 4.568044,2.76487 6.100741,2.644656 9.196191,-0.811427 1.26223,-1.382443 2.76487,-2.644663 4.0271,-3.365932 3.45608,-2.043599 6.46138,-5.169104 6.46138,-6.761913 0,-1.142008 -0.84148,-2.674709 -1.83323,-3.275771 -1.41249,-0.841479 -5.46963,-1.322326 -9.85737,-1.142008 -4.027087,0.150262 -8.024126,0.901588 -14.876197,2.764867 -2.163807,0.571006 -3.966987,0.991748 -4.02709,0.901588 -0.691213,-0.661161 3.245718,-5.078943 4.237463,-4.778417 0.781372,0.240427 2.013545,-0.450791 2.013545,-1.142009 0,-1.292276 -3.065393,0.0601 -4.868573,2.193865 -0.691221,0.81143 -1.41249,1.472591 -1.622855,1.472591 -0.721277,0 -0.751325,-0.571003 -0.03002,-1.713018 0.991745,-1.562749 1.412482,-2.945184 1.412482,-4.477885 0,-1.412487 -0.480841,-1.74307 -1.232165,-0.841482 -0.300531,0.360635 -0.300531,0.661165 0,1.472594 0.300524,0.871536 0.270476,1.202118 -0.39069,2.674709 -0.661166,1.50265 -2.043601,3.185615 -2.584552,3.185615 -0.120214,0 -0.39069,-1.652915 -0.571007,-3.696512 -0.510902,-5.139052 -1.172068,-9.286355 -1.893344,-12.081279 -1.081904,-4.29757 -4.087194,-10.127841 -5.61989,-11.059482 -1.081911,-0.631111 -2.734822,-0.841482 -3.696511,-0.480847 z"
     id="path3533"
     style="fill:#ffd5d5;stroke:none;stroke-width:0.03005293" />
  <path
     style="fill:#ffd5d5;stroke:none;stroke-width:0.02275317"
     id="path3541"
     d="m 49.227267,186.49812 c 1.18317,0.45507 2.61661,3.25371 3.23095,6.32538 0.40956,1.95678 0.77361,2.84415 1.95678,4.73267 1.04664,1.63822 0.88737,2.32082 -0.93289,3.84528 -2.98066,2.50285 -3.41297,2.8669 -3.32196,2.95792 0.0455,0.0455 0.77361,-0.15928 1.63823,-0.47782 1.36519,-0.52333 1.66098,-0.56883 2.77589,-0.36405 2.43459,0.45506 4.18658,1.79749 5.21048,3.95905 1.16041,2.50285 0.45506,5.93858 -1.61548,7.96361 -1.00114,0.97839 -2.91241,1.752 -4.32311,1.752 -1.13766,0 -4.00456,-0.97839 -6.34813,-2.16156 -0.86462,-0.43231 -1.61548,-0.75085 -1.66098,-0.70535 -0.0455,0.0455 0.18202,0.40956 0.52332,0.79637 1.27418,1.52446 1.91127,4.39136 1.00114,4.68715 -0.81912,0.27304 -2.8669,-1.20591 -3.89079,-2.82139 l -0.68259,-1.04665 0.15926,1.59272 c 0.091,0.86462 0.15928,2.61662 0.18203,3.86804 0,2.02504 -0.0683,2.38909 -0.61434,3.43573 -1.25142,2.45734 -3.79978,3.70877 -6.8487,3.43573 -3.595,-0.3413 -6.50741,-3.2537 -6.50741,-6.53016 0,-1.82026 0.31855,-2.70763 1.47896,-3.98181 0.54607,-0.61433 0.95563,-1.16041 0.91012,-1.20591 -0.0455,-0.0455 -0.86462,0.3868 -1.82025,0.95563 -3.45848,2.09329 -4.6189,2.00228 -6.96247,-0.61434 -0.95564,-1.04664 -2.0933,-2.00228 -3.04893,-2.54835 -2.61661,-1.54722 -4.89193,-3.91355 -4.89193,-5.11947 0,-0.86462 0.63709,-2.02503 1.38794,-2.48009 1.0694,-0.63709 4.14108,-1.00114 7.46305,-0.86462 3.04892,0.11376 6.0751,0.68259 11.26282,2.09329 1.63823,0.43231 3.00341,0.75085 3.04892,0.68259 0.52333,-0.50056 -2.45734,-3.84528 -3.2082,-3.61775 -0.59157,0.18203 -1.52446,-0.3413 -1.52446,-0.86462 0,-0.97839 2.32082,0.0455 3.68602,1.66098 0.52332,0.61434 1.06939,1.1149 1.22867,1.1149 0.54607,0 0.56883,-0.4323 0.0227,-1.29693 -0.75086,-1.18316 -1.0694,-2.22981 -1.0694,-3.39022 0,-1.0694 0.36405,-1.31968 0.93288,-0.63709 0.22753,0.27304 0.22753,0.50057 0,1.11491 -0.22753,0.65984 -0.20478,0.91013 0.29579,2.02503 0.50057,1.13766 1.54721,2.41184 1.95677,2.41184 0.091,0 0.29579,-1.25143 0.43232,-2.79864 0.3868,-3.8908 0.88737,-7.03074 1.43344,-9.14678 0.81912,-3.2537 3.09443,-7.66782 4.25485,-8.37317 0.81911,-0.47782 2.07053,-0.63709 2.79864,-0.36405 z" />
  <path
     style="fill:#ffd5d5;stroke:none;stroke-width:0.02313144"
     id="path3543"
     d="m 18.384808,161.02118 c -1.202835,-0.46263 -2.660116,-3.3078 -3.284666,-6.43055 -0.416366,-1.9893 -0.786469,-2.89143 -1.989304,-4.81134 -1.064048,-1.66546 -0.902126,-2.3594 0.948388,-3.90921 3.030219,-2.54446 3.469718,-2.91456 3.377191,-3.00708 -0.04626,-0.0463 -0.78647,0.16191 -1.665462,0.48576 -1.387888,0.53202 -1.688596,0.57828 -2.822036,0.3701 -2.475067,-0.46263 -4.256187,-1.82739 -5.297103,-4.02487 -1.179701,-2.54446 -0.462628,-6.03731 1.642333,-8.09601 1.017783,-0.99465 2.960825,-1.78112 4.394973,-1.78112 1.156573,0 4.071136,0.99465 6.453676,2.19749 0.878993,0.43949 1.642329,0.76334 1.688595,0.71707 0.04626,-0.0463 -0.185051,-0.41636 -0.532023,-0.8096 -1.295362,-1.5498 -1.943041,-4.46437 -1.017786,-4.76507 0.832735,-0.27758 2.914563,1.22596 3.955478,2.8683 l 0.693942,1.06404 -0.161919,-1.6192 c -0.09252,-0.879 -0.161919,-2.66012 -0.185051,-3.93235 0,-2.05869 0.06939,-2.4288 0.624549,-3.49284 1.27223,-2.4982 3.862951,-3.77043 6.962566,-3.49285 3.654766,0.34697 6.61559,3.30779 6.61559,6.63872 0,1.85052 -0.323841,2.75264 -1.503543,4.04801 -0.555155,0.62454 -0.97152,1.1797 -0.925259,1.22596 0.04626,0.0463 0.878997,-0.39323 1.850518,-0.97152 3.515976,-2.12809 4.695681,-2.03557 7.078218,0.62455 0.971521,1.06405 2.128094,2.03557 3.099614,2.59072 2.660116,1.57294 4.973262,3.97861 4.973262,5.20458 0,0.87899 -0.647679,2.05869 -1.41102,2.52133 -1.087173,0.64767 -4.209918,1.01778 -7.587111,0.87899 -3.099614,-0.11566 -6.176095,-0.69395 -11.450066,-2.12809 -1.665466,-0.4395 -3.053349,-0.76334 -3.099611,-0.69395 -0.532022,0.50889 2.498197,3.90921 3.261534,3.6779 0.601414,-0.18505 1.549805,0.34697 1.549805,0.879 0,0.99465 -2.359407,-0.0463 -3.747294,-1.6886 -0.532026,-0.62455 -1.087177,-1.13344 -1.249096,-1.13344 -0.555156,0 -0.578289,0.4395 -0.02315,1.31849 0.763339,1.20284 1.087177,2.26688 1.087177,3.44659 0,1.08718 -0.370103,1.34162 -0.948388,0.64768 -0.231317,-0.27758 -0.231317,-0.5089 0,-1.13344 0.23131,-0.67081 0.208184,-0.92526 -0.300712,-2.0587 -0.50889,-1.15657 -1.572935,-2.45194 -1.989301,-2.45194 -0.09253,0 -0.300712,1.27224 -0.439501,2.84517 -0.39323,3.95548 -0.902127,7.14762 -1.457282,9.29884 -0.832731,3.3078 -3.145874,7.7953 -4.325575,8.51237 -0.832735,0.48576 -2.104964,0.64769 -2.845168,0.37011 z" />
  <path
     style="fill:#ffd5d5;stroke:none;stroke-width:0.03005293"
     id="path3545"
     d="m 172.88867,64.098581 c 1.66734,0.153233 5.00198,-2.322446 7.52636,-5.600628 1.62966,-2.077672 2.57986,-2.915553 5.08573,-4.459857 2.19778,-1.327768 2.40848,-2.229276 1.14465,-5.099376 -2.06566,-4.707547 -2.36466,-5.39155 -2.20363,-5.446093 0.0805,-0.02723 0.82295,0.641156 1.66052,1.524165 1.31054,1.418345 1.63419,1.645282 3.0743,2.054937 3.14928,0.88528 6.00933,0.320415 8.48631,-1.640395 2.83827,-2.285116 4.01281,-6.766399 2.74542,-10.375683 -0.61323,-1.744276 -2.42405,-3.778448 -4.09464,-4.603672 -1.34724,-0.665499 -5.31462,-1.183931 -8.78204,-1.153732 -1.27681,0.0062 -2.35232,-0.05583 -2.3796,-0.136343 -0.0273,-0.08051 0.45516,-0.378528 1.08559,-0.636936 2.40067,-1.05994 4.8322,-4.082304 3.92744,-4.964992 -0.81032,-0.80246 -4.10048,-0.248987 -6.25801,1.065148 l -1.4206,0.840155 1.12031,-1.792961 c 0.61356,-0.970665 1.71927,-3.00549 2.47827,-4.474136 1.18459,-2.398084 1.31668,-2.869152 1.2823,-4.428045 -0.0445,-3.642087 -2.33024,-6.6147689 -6.10057,-8.0749781 -4.45693,-1.6988083 -9.60954,0.046432 -11.52619,3.9264861 -1.06481,2.155592 -1.20666,3.392771 -0.57784,5.580499 0.28731,1.046947 0.45288,1.9332 0.37236,1.96047 -0.0806,0.02731 -0.7976,-0.963882 -1.59656,-2.196486 -2.8711,-4.50204 -4.29852,-5.073075 -8.60448,-3.345356 -1.74395,0.680445 -3.6502,1.146621 -5.10133,1.234273 -4.00373,0.301599 -8.08246,1.77285 -8.78789,3.200929 -0.50578,1.023895 -0.43013,2.770758 0.19284,3.748894 0.89372,1.380023 4.3183,3.607993 8.33212,5.389592 3.67715,1.648822 7.59356,2.745433 14.5622,4.109538 2.19291,0.446375 3.99594,0.867751 4.0099,0.9752 0.3269,0.89891 -5.15944,3.116189 -5.91551,2.407512 -0.59409,-0.561609 -2.00496,-0.487601 -2.31109,0.13213 -0.57233,1.158623 2.77499,1.303736 5.3367,0.189251 0.9791,-0.421376 1.9186,-0.694721 2.1072,-0.601554 0.64668,0.31945 0.42073,0.844703 -0.73177,1.549141 -1.5813,0.961902 -2.57079,2.015021 -3.24959,3.389203 -0.62558,1.266411 -0.34088,1.775757 0.73204,1.300162 0.42916,-0.190233 0.56227,-0.459681 0.65219,-1.320293 0.11655,-0.914495 0.2899,-1.197583 1.53488,-2.225056 1.25829,-1.054419 3.24311,-1.951067 3.72812,-1.711486 0.10775,0.05328 -0.38177,1.654999 -1.12519,3.567098 -1.81796,4.833837 -3.06194,8.845038 -3.6531,11.670347 -0.93332,4.332269 -0.82098,10.890556 0.14058,12.404662 0.69051,1.045003 2.07931,1.965667 3.10125,2.068246 z" />
  <path
     d="m 53.745914,124.54003 c 0.48014,-0.15962 1.17997,-0.72886 1.83437,-1.52184 2.42411,-2.97734 3.8454,-5.88308 5.41256,-10.97731 0.53791,-1.82549 0.98256,-2.88652 1.17368,-2.8632 0.71668,0.0874 1.40873,2.96008 0.85572,3.71694 -0.35368,0.51451 -0.22906,1.2813 0.19455,1.18751 0.42361,-0.0938 0.57759,-2.54802 0.23444,-3.5112 -0.25866,-0.66193 -0.25632,-0.87985 6e-5,-0.99404 0.20861,-0.12001 0.511,0.18357 0.87106,0.80939 0.29713,0.5454 0.79178,1.26038 1.11806,1.56689 0.71258,0.71731 1.58483,0.92072 1.43978,0.32114 -0.0454,-0.22375 -0.0909,-0.44751 -0.0851,-0.49529 0.006,-0.0477 -0.2989,-0.13343 -0.68113,-0.18008 -0.54947,-0.067 -0.83088,-0.34383 -1.41,-1.36006 -0.74108,-1.27843 -0.86282,-2.06914 -0.33724,-2.005 0.16722,0.0204 1.38091,0.60489 2.70528,1.27564 4.17068,2.18179 5.91576,2.78263 9.4753,3.21694 l 3.1744,0.41156 0.80413,-0.62925 c 0.42887,-0.33558 0.89272,-0.95786 1.03491,-1.32843 0.31645,-1.00393 -0.67108,-2.84584 -2.63224,-4.85502 -0.83842,-0.87815 -1.74033,-2.03074 -1.9658,-2.5674 -0.64901,-1.43691 -1.19436,-2.13383 -1.7916,-2.2067 -0.28667,-0.0349 -1.50973,0.25221 -2.69666,0.64078 -1.18403,0.36469 -2.15944,0.60935 -2.14486,0.4899 0.0117,-0.0955 0.39275,-0.43698 0.84842,-0.79355 1.09023,-0.7883 1.6485,-1.78697 1.83505,-3.315901 0.50426,-4.1329 -3.89942,-7.38567 -7.61059,-5.58366 -2.05982,0.98517 -2.94734,2.69528 -3.43412,6.68483 l -0.21278,1.743951 -0.64844,-1.24289 c -0.76264,-1.499281 -1.62786,-2.356451 -2.20355,-2.208481 -0.5757,0.14797 -0.63874,2.055651 -0.13598,3.498971 0.21963,0.58443 0.3105,1.03194 0.22078,0.97249 -0.0658,-0.0565 -1.02604,-0.73134 -2.11794,-1.51915 -2.47394,-1.780811 -3.8572,-2.167801 -5.62856,-1.559591 -2.12332,0.710741 -3.87149,3.115931 -3.87687,5.345831 -0.008,3.44187 2.63275,6.04309 5.52053,5.42563 1.24695,-0.28427 1.33725,-0.0308 0.18352,0.48305 -0.45916,0.18644 -1.3233,0.71137 -1.93398,1.14601 -1.48646,1.05514 -1.76445,1.94253 -1.1475,3.64225 0.2709,0.7604 0.45378,2.04347 0.46012,3.18377 0.0288,4.73134 1.08221,6.62977 3.29817,5.95457 z"
     id="path3547"
     style="fill:#550000;stroke-width:0.02406673" />
  <path
     d="m 101.88876,160.47132 c -0.87804,0.33771 -1.941806,2.41461 -2.397714,4.69413 -0.303938,1.45215 -0.574104,2.11067 -1.452146,3.51216 -0.776723,1.21574 -0.658527,1.72231 0.692307,2.85362 2.211973,1.85739 2.532793,2.12756 2.465263,2.19511 -0.0338,0.0338 -0.57411,-0.11821 -1.21575,-0.3546 -1.013121,-0.38837 -1.23263,-0.42213 -2.060016,-0.27016 -1.806735,0.3377 -3.106904,1.33393 -3.866751,2.93805 -0.861152,1.85739 -0.337705,4.40708 1.198864,5.90988 0.742957,0.72607 2.16133,1.30017 3.208225,1.30017 0.844269,0 2.971818,-0.72607 4.711008,-1.60411 0.64165,-0.32082 1.19887,-0.55722 1.23263,-0.52345 0.0338,0.0338 -0.13508,0.30394 -0.38836,0.59099 -0.94558,1.13132 -1.41837,3.25888 -0.74295,3.47839 0.60787,0.20262 2.12755,-0.89492 2.88739,-2.09379 l 0.50656,-0.77673 -0.11819,1.18198 c -0.0675,0.64164 -0.1182,1.94182 -0.13509,2.87051 0,1.5028 0.0507,1.77297 0.45591,2.54969 0.92869,1.82362 2.81986,2.75232 5.08249,2.54969 2.66789,-0.25328 4.82922,-2.4146 4.82922,-4.8461 0,-1.35083 -0.2364,-2.00936 -1.09755,-2.95494 -0.40525,-0.4559 -0.70919,-0.86115 -0.67541,-0.89492 0.0338,-0.0338 0.64164,0.28705 1.35082,0.70918 2.56658,1.55346 3.42774,1.48592 5.16692,-0.4559 0.70919,-0.77673 1.55346,-1.48592 2.26265,-1.89116 1.94181,-1.14821 3.63035,-2.90429 3.63035,-3.79921 0,-0.64165 -0.47279,-1.5028 -1.03001,-1.8405 -0.79361,-0.47279 -3.07313,-0.74296 -5.5384,-0.64165 -2.26264,0.0844 -4.5084,0.50656 -8.35826,1.55346 -1.21574,0.32082 -2.22886,0.55721 -2.26263,0.50655 -0.38837,-0.37147 1.82361,-2.85362 2.38084,-2.68477 0.43901,0.13509 1.13131,-0.25328 1.13131,-0.64164 0,-0.72607 -1.7223,0.0338 -2.73543,1.23263 -0.38836,0.45591 -0.79361,0.82738 -0.91181,0.82738 -0.40524,0 -0.42213,-0.32081 -0.0168,-0.96247 0.55722,-0.87803 0.79361,-1.65476 0.79361,-2.51591 0,-0.79362 -0.27017,-0.97935 -0.6923,-0.47279 -0.16885,0.20262 -0.16885,0.37147 0,0.82738 0.16885,0.48968 0.15197,0.67542 -0.21951,1.5028 -0.37148,0.84427 -1.1482,1.78985 -1.45214,1.78985 -0.0675,0 -0.21951,-0.9287 -0.32083,-2.0769 -0.28705,-2.8874 -0.65853,-5.21758 -1.06377,-6.78792 -0.60788,-2.4146 -2.29641,-5.69037 -3.15757,-6.21382 -0.60787,-0.35459 -1.53656,-0.47279 -2.0769,-0.27016 z"
     id="path3549"
     style="fill:#ffd5d5;stroke:none;stroke-width:0.01688536" />
</svg>
