<?xml version="1.0" encoding="UTF-8" standalone="no"?>
<svg
   xmlns:dc="http://purl.org/dc/elements/1.1/"
   xmlns:cc="http://creativecommons.org/ns#"
   xmlns:rdf="http://www.w3.org/1999/02/22-rdf-syntax-ns#"
   xmlns:svg="http://www.w3.org/2000/svg"
   xmlns="http://www.w3.org/2000/svg"
   id="svg1010"
   preserveAspectRatio="xMidYMid meet"
   viewBox="0 0 369.000000 380.000000"
   height="380.000000pt"
   width="369.000000pt"
   version="1.0">
  <metadata
     id="metadata1016">
    <rdf:RDF>
      <cc:Work
         rdf:about="">
        <dc:format>image/svg+xml</dc:format>
        <dc:type
           rdf:resource="http://purl.org/dc/dcmitype/StillImage" />
        <dc:title></dc:title>
      </cc:Work>
    </rdf:RDF>
  </metadata>
  <defs
     id="defs1014" />
  <g
     style="fill:#806600;stroke:#000000;stroke-opacity:1"
     id="g1008"
     transform="matrix(0.07768802,-0.03936798,-0.03936798,-0.07768802,97.153877,400.99301)">
    <path
       style="fill:#806600;stroke:#000000;stroke-opacity:1"
       id="path1006"
       d="m 1862,3750 c -51,-31 -143,-192 -228,-397 -55,-133 -111,-241 -162,-313 -25,-35 -159,-177 -298,-315 -304,-303 -299,-294 -298,-500 0,-115 3,-140 28,-215 15,-47 48,-123 72,-169 24,-46 42,-86 39,-89 -3,-3 -78,-9 -168,-13 -178,-9 -246,-22 -352,-73 C 348,1596 232,1482 160,1335 107,1229 89,1154 88,1044 87,868 138,740 259,619 375,503 511,446 699,433 794,427 810,419 810,383 810,346 787,309 728,253 647,177 586,150 472,139 419,134 372,126 367,121 c -12,-12 32,-41 80,-51 70,-16 161,10 393,113 103,45 156,62 300,92 351,73 468,133 696,354 116,113 182,152 272,159 41,4 52,1 52,-10 0,-8 -51,-64 -113,-124 -62,-60 -120,-126 -130,-147 -20,-40 -20,-112 -1,-112 7,0 53,34 103,75 50,41 145,110 211,152 173,110 207,137 306,240 68,71 105,101 156,126 88,43 123,87 123,154 0,26 5,48 10,48 6,0 50,18 98,40 247,109 473,320 596,555 34,66 39,106 15,129 -21,22 -31,20 -59,-9 -26,-25 -34,-85 -16,-114 26,-40 -172,-274 -330,-391 -76,-56 -252,-151 -309,-165 -21,-6 -19,-2 15,26 229,189 431,455 538,709 62,148 72,186 61,217 -12,35 -46,41 -73,14 -23,-23 -30,-104 -10,-117 16,-10 4,-55 -40,-150 -93,-197 -228,-383 -393,-539 -91,-87 -200,-173 -182,-144 5,8 34,52 65,99 251,379 483,1016 558,1535 46,310 6,539 -97,569 -55,15 -90,-9 -144,-101 -32,-54 -77,-108 -140,-169 -162,-156 -369,-324 -399,-324 -10,0 -21,25 -33,73 -69,271 -211,506 -440,725 -118,113 -174,134 -244,92 z m 159,-380 c 126,-65 201,-229 134,-295 -28,-29 -54,-31 -118,-9 -131,44 -228,219 -166,298 17,21 29,26 65,26 25,0 62,-9 85,-20 z m -174,-251 c 41,-25 77,-91 69,-125 -19,-73 -145,-42 -191,47 -47,90 26,137 122,78 z m 423,-207 c 44,-24 89,-97 123,-199 35,-107 54,-204 78,-406 18,-150 20,-205 15,-427 -3,-140 -10,-302 -16,-360 -11,-119 -41,-303 -48,-295 -3,3 -9,71 -13,151 -26,478 -122,763 -368,1094 -83,111 -99,162 -80,251 21,98 67,162 139,193 49,21 128,20 170,-2 z m 930,-17 c 8,-17 16,-67 18,-117 6,-146 -54,-328 -108,-328 -89,0 -80,338 12,455 26,34 58,30 78,-10 z m -1509,-9 c 78,-53 87,-146 15,-146 -47,0 -77,13 -113,49 -33,33 -46,76 -32,103 15,28 86,24 130,-6 z m 1247,-98 c 63,-68 49,-308 -18,-308 -44,0 -88,128 -75,219 7,53 37,111 58,111 7,0 23,-10 35,-22 z M 1515,2652 c 30,-15 62,-53 75,-86 36,-96 -65,-148 -166,-85 -64,39 -93,119 -61,162 24,34 98,39 152,9 z m 1225,-76 c 13,-56 2,-106 -24,-106 -22,0 -36,24 -48,83 -10,48 -9,58 6,82 17,25 19,26 36,10 11,-10 24,-40 30,-69 z M 1344,2416 c 90,-44 146,-103 146,-152 0,-44 -27,-58 -97,-51 -94,10 -215,77 -254,141 -64,105 49,140 205,62 z m 597,34 c 109,-30 232,-223 323,-508 54,-167 77,-316 82,-527 l 4,-180 -18,60 c -83,270 -270,512 -491,635 -213,120 -219,125 -228,213 -10,99 39,205 124,266 66,49 130,61 204,41 z m 964,-74 c 98,-52 101,-194 10,-463 -47,-138 -103,-255 -202,-419 -70,-117 -180,-270 -188,-262 -2,2 8,41 21,87 68,237 96,467 92,763 -3,205 -2,218 18,244 61,83 154,101 249,50 z M 1231,2187 c 19,-12 38,-35 44,-51 8,-24 6,-31 -14,-47 -13,-10 -30,-19 -38,-19 -33,0 -85,35 -101,66 -14,31 -14,35 3,54 24,26 64,25 106,-3 z m 15,-232 c 59,-35 83,-84 59,-121 -12,-19 -24,-24 -61,-24 -97,0 -190,84 -161,147 5,12 17,24 26,27 33,10 92,-3 137,-29 z m 480,-57 c 207,-83 428,-323 520,-563 63,-166 62,-184 -6,-63 -19,34 -66,94 -105,133 -119,121 -245,192 -470,265 -71,24 -146,51 -166,61 -79,40 -64,144 26,186 41,19 128,11 201,-19 z m -421,-249 c 115,-15 295,-63 415,-109 328,-128 513,-282 565,-470 4,-16 -5,-8 -28,25 -116,167 -262,262 -465,301 -124,24 -368,28 -522,10 -157,-19 -332,-21 -363,-5 -105,54 -115,170 -20,225 68,41 220,49 418,23 z M 644,1546 c 46,-19 53,-34 27,-59 -32,-32 -153,-36 -199,-7 -40,25 -38,39 9,62 41,22 117,23 163,4 z m 263,-233 c 13,-33 -55,-65 -101,-47 -19,7 -21,35 -4,52 19,19 97,15 105,-5 z m 833,-47 c 179,-33 318,-95 408,-184 30,-29 52,-55 49,-58 -2,-3 -25,9 -51,26 -54,37 -145,75 -212,90 -64,14 -220,14 -280,-1 -65,-16 -162,-60 -218,-98 -79,-55 -167,-91 -219,-91 -83,0 -160,45 -172,101 -14,62 65,168 152,204 21,9 63,20 93,25 78,13 349,4 450,-14 z M 624,1220 c 103,-52 11,-118 -151,-108 -150,9 -199,73 -88,113 51,19 198,16 239,-5 z m 295,-158 c 87,-65 -69,-152 -166,-92 -77,46 -7,126 101,115 22,-2 51,-12 65,-23 z m 931,-85 c 87,-44 -53,-168 -246,-217 -176,-45 -271,-5 -195,83 84,95 355,178 441,134 z M 677,835 c 66,-20 113,-63 113,-103 0,-52 -81,-102 -166,-102 -88,0 -204,67 -204,118 0,29 41,74 81,88 47,17 116,17 176,-1 z m 469,-41 c 94,-45 26,-140 -98,-138 -123,2 -158,88 -55,135 52,23 108,24 153,3 z m 555,-143 c -17,-32 -145,-144 -206,-181 -90,-53 -236,-101 -332,-107 -78,-5 -82,-5 -107,20 -35,35 -37,106 -3,138 55,53 118,59 198,17 33,-17 52,-20 102,-15 71,5 212,59 297,111 30,19 56,35 58,35 1,1 -2,-7 -7,-18 z" />
  </g>
</svg>
