<?xml version="1.0" encoding="UTF-8" standalone="no"?>
<svg
   xmlns:dc="http://purl.org/dc/elements/1.1/"
   xmlns:cc="http://creativecommons.org/ns#"
   xmlns:rdf="http://www.w3.org/1999/02/22-rdf-syntax-ns#"
   xmlns:svg="http://www.w3.org/2000/svg"
   xmlns="http://www.w3.org/2000/svg"
   viewBox="0 0 438 470"
   height="470"
   width="438"
   id="svg7239"
   version="1.1">
  <metadata
     id="metadata7245">
    <rdf:RDF>
      <cc:Work
         rdf:about="">
        <dc:format>image/svg+xml</dc:format>
        <dc:type
           rdf:resource="http://purl.org/dc/dcmitype/StillImage" />
        <dc:title></dc:title>
      </cc:Work>
    </rdf:RDF>
  </metadata>
  <defs
     id="defs7243" />
  <path
     id="path7249"
     d="m 152.75986,345.79434 c -2.97563,-2.0842 -4.27434,-6.83931 -4.22625,-15.47381 0.0521,-9.34867 1.19093,-16.70056 6.29317,-40.62682 5.33428,-25.01435 5.69866,-31.21221 1.89116,-32.16785 -7.55646,-1.89655 -20.13585,18.31051 -27.71792,44.52499 -2.67062,9.23351 -3.5435,10.34201 -6.45447,8.19665 -2.91295,-2.14682 -4.64664,-7.67396 -4.68667,-14.94146 l -0.033,-5.99195 -3.99089,6.74579 c -9.23945,15.61743 -16.985754,25.34954 -20.966955,26.34196 -3.165247,0.78902 -6.993387,-1.26813 -8.588499,-4.61524 -2.368505,-4.97003 -2.325062,-16.30609 0.105078,-27.41918 0.346626,-1.58508 0.14784,-1.46529 -1.25083,0.75384 -3.575177,5.67233 -6.806365,8.93569 -10.088852,10.18929 -4.512001,1.72315 -6.947249,0.55986 -9.49496,-4.53554 -1.683984,-3.36796 -1.877879,-4.6518 -1.821582,-12.06132 0.07207,-9.48186 1.729841,-15.08713 5.850008,-19.77976 5.691168,-6.48187 15.397617,-7.17895 21.403118,-1.53708 3.09393,2.90661 1.550405,4.0206 -1.857053,1.3403 -4.626824,-3.63947 -9.429336,-0.15744 -13.582484,9.84789 -2.365788,5.69941 -4.715182,15.40091 -4.715182,19.47069 0,3.2918 1.282758,6.11152 2.780269,6.11152 2.651468,0 9.006076,-7.98838 13.043131,-16.39652 2.139817,-4.45666 4.300208,-8.95109 4.800883,-9.9876 1.768559,-3.66137 6.574199,-2.40951 9.562172,2.4909 0.807875,1.32495 1.470128,3.11047 1.471678,3.96778 10e-4,0.85733 -1.664452,6.62414 -3.702211,12.81514 -5.578211,16.94737 -7.267404,26.30727 -4.910858,27.21157 2.663695,1.02215 9.683809,-7.71741 20.086399,-25.00615 4.95264,-8.23113 6.56177,-11.61928 7.2997,-15.37019 1.47182,-7.48102 1.95828,-8.37055 4.57774,-8.37055 2.6426,0 8.07556,4.44524 8.75847,7.16619 0.23412,0.93283 -0.27917,3.97809 -1.14066,6.76723 -2.45378,7.94445 -1.80521,7.51147 1.70359,-1.13729 8.44991,-20.82799 17.51162,-30.8881 27.82266,-30.8881 4.65554,0 7.49904,1.48168 9.73005,5.07008 3.69925,5.94999 1.70799,18.82973 -7.25777,46.94433 -8.09052,25.37002 -9.94367,39.19926 -5.25278,39.19926 3.14514,0 12.46735,-11.42696 21.28351,-26.08887 7.16387,-11.91399 18.14511,-32.56474 19.14485,-36.00268 0.49818,-1.7132 0.93199,-5.72906 0.96403,-8.9241 0.0628,-6.275 0.99988,-8.33697 5.2176,-11.48238 2.86855,-2.13923 9.48585,-2.05896 13.76875,0.16702 7.8355,4.07239 11.95077,14.53103 10.13192,25.74945 -0.43299,2.67065 -0.68641,4.95658 -0.56315,5.07984 0.59207,0.59208 7.32166,-4.44109 9.15934,-6.85043 l 2.0801,-2.72715 -1.22743,-4.37454 c -3.47703,-12.39204 1.06634,-21.23683 10.90891,-21.23683 5.58413,0 9.72479,4.31714 9.72479,10.13929 0,3.76802 -1.23792,3.33306 -1.8344,-0.64454 -0.58927,-3.92948 -3.32563,-7.23327 -5.99099,-7.23327 -1.9894,0 -4.23594,1.75508 -4.23594,3.30928 0,3.01857 3.1475,10.5474 8.7061,20.82504 3.47916,6.43287 6.70824,12.79333 7.17573,14.13436 0.46748,1.34104 1.08538,2.43826 1.37312,2.43826 0.28773,0 3.23658,-1.66986 6.553,-3.71082 5.6361,-3.46848 10.57903,-8.04011 14.36133,-13.28257 2.93897,-4.07355 2.8397,-1.17327 -0.10623,3.10411 -3.37468,4.89989 -6.92915,7.96757 -14.60137,12.60168 l -5.54327,3.34821 -0.11575,8.95795 c -0.12894,9.97761 -1.19298,13.4624 -5.66607,18.55696 -2.90658,3.31041 -9.2404,6.60842 -12.69149,6.60842 -5.34737,0 -10.47177,-4.34697 -11.80788,-10.01652 -1.42225,-6.03498 3.77108,-12.90756 13.68205,-18.10612 3.0059,-1.57667 5.46528,-3.04011 5.46528,-3.25205 0,-0.79252 -9.96701,-17.0816 -12.60126,-20.59424 -0.13671,-0.18228 -0.82635,0.49616 -1.53254,1.50766 -2.05185,2.93894 -4.8293,5.25688 -8.58427,7.16407 -2.98265,1.51492 -3.83122,2.49309 -5.78521,6.66863 -5.69752,12.17532 -16.56905,16.80041 -22.8025,9.70089 -2.9815,-3.39575 -3.70424,-5.30136 -4.78819,-12.62476 l -0.88911,-6.00693 -4.75775,9.02225 c -7.1081,13.47925 -17.19142,29.8905 -22.45657,36.54952 -6.68293,8.4521 -12.51566,11.50857 -16.5584,8.67692 z m 97.39227,-12.50719 c 1.25961,-0.76146 3.12534,-2.84294 4.14607,-4.6255 1.58067,-2.76041 1.85196,-4.19121 1.82952,-9.64861 -0.0163,-3.95627 -0.44883,-7.34501 -1.13074,-8.858 l -1.1044,-2.45043 -5.27683,3.12108 c -5.96029,3.52531 -9.80388,6.85321 -11.37179,9.84605 -2.48224,4.73809 -0.18974,11.00959 4.97136,13.59989 2.79233,1.40146 4.2991,1.21456 7.93681,-0.98448 z m -35.9102,-22.90466 c 2.82067,-1.45863 6.44646,-5.68221 8.70622,-10.14161 l 1.84446,-3.63986 -4.05077,-0.41808 c -2.22793,-0.22994 -5.65517,-1.12777 -7.61611,-1.99517 -1.96092,-0.86743 -3.68826,-1.45419 -3.83853,-1.30392 -0.15026,0.15025 -0.47249,3.46182 -0.71607,7.359 -0.64983,10.39727 0.65631,12.73273 5.6708,10.13964 z m 12.09614,-19.07278 c 1.14062,-4.10721 0.96901,-13.82416 -0.30807,-17.44384 -2.43558,-6.90312 -8.19795,-11.39023 -14.62745,-11.39023 -6.10769,0 -9.9013,3.64074 -9.9013,9.50231 0,2.77567 0.009,2.78409 1.55918,1.38163 1.4207,-1.2857 1.73723,-1.3111 3.56373,-0.2859 1.10251,0.61882 2.80567,2.30368 3.78482,3.74415 1.51218,2.22465 1.70727,3.18662 1.29556,6.38819 -0.98688,7.67389 -1.06494,7.39483 2.58312,9.23445 2.21181,1.11536 4.71634,1.69612 7.31443,1.69612 3.92338,0 3.95639,-0.0197 4.73598,-2.82688 z m 54.31554,-30.20069 c 0,-0.33704 1.04894,-1.60914 2.33096,-2.82687 2.36086,-2.24249 9.73036,-11.18932 9.73036,-11.81299 0,-0.18654 -1.33871,-0.74025 -2.9749,-1.23047 -5.79259,-1.73551 -7.99558,-7.07349 -7.35275,-17.81623 0.64049,-10.70364 1.50876,-11.49981 6.78226,-6.21913 3.88193,3.88722 5.80688,9.2567 5.80688,16.19781 0,6.51659 0.84524,5.74782 6.66227,-6.05953 6.74356,-13.68809 11.04324,-28.19046 12.61614,-42.55305 l 0.51596,-4.71146 -2.54732,-0.0165 c -7.36286,-0.0478 -14.26077,-7.30028 -15.49283,-16.28915 l -0.482,-3.51653 3.52377,0.39718 c 1.98393,0.22361 4.83791,1.26684 6.5311,2.38733 2.64291,1.74901 4.0875,3.39304 8.10825,9.2277 0.79971,1.16051 0.89111,-0.22321 0.52978,-8.02043 -1.01067,-21.80915 -7.21709,-49.00025 -13.593,-59.55274 -3.12482,-5.17174 -4.36456,-9.801944 -3.70636,-13.842335 0.61331,-3.764785 3.98377,-10.280294 5.31795,-10.280294 1.42107,0 3.79719,3.697395 4.82204,7.503404 1.02247,3.797192 0.54305,8.881515 -1.42494,15.111565 -1.29231,4.091 -1.28579,4.21616 0.48998,9.42289 0.98983,2.90226 2.93091,9.68675 4.31353,15.07664 1.38262,5.3899 2.67794,9.29098 2.8785,8.66908 0.20055,-0.62192 0.76844,-2.61331 1.26202,-4.42534 0.97407,-3.57612 5.36146,-8.72008 8.10721,-9.50529 2.20118,-0.62945 2.72292,1.43462 2.36344,9.35033 -0.20792,4.57852 -0.63998,6.48563 -1.8373,8.1101 -1.43761,1.95047 -4.94345,4.17665 -7.9352,5.03879 -1.05341,0.30356 -1.11424,0.93529 -0.45728,4.7483 0.41678,2.41898 0.77248,11.01302 0.79042,19.09788 0.0303,13.59667 -0.79674,22.26553 -3.01873,31.64644 l -0.44984,1.89909 2.17525,-1.99011 c 1.19638,-1.09454 3.57868,-2.69324 5.29403,-3.55265 3.68927,-1.84837 13.003,-3.51345 14.01152,-2.50491 1.10883,1.10882 -1.45028,6.23577 -4.84172,9.7 -3.72794,3.80791 -9.19338,6.2961 -14.98284,6.82108 l -4.28117,0.38819 -2.43889,6.49975 c -4.72331,12.58786 -13.01717,26.23694 -21.53034,35.43219 -3.98929,4.3089 -5.61621,5.46773 -5.61621,4.00032 z m 12.43244,-23.98827 c -0.004,-5.70821 -0.29544,-7.30858 -1.88923,-10.40562 -1.90436,-3.70054 -5.55386,-7.17173 -6.5221,-6.20346 -0.28963,0.28961 -0.54959,4.16797 -0.57774,8.61857 -0.0408,6.46204 0.22442,8.597 1.31686,10.59887 1.28845,2.36109 5.26239,4.86612 6.92418,4.36474 0.43002,-0.12975 0.75135,-3.12498 0.74803,-6.9731 z m 28.83913,-25.90869 c 3.9542,-1.74653 8.03396,-5.30507 9.67641,-8.44017 1.45726,-2.78162 1.41437,-2.86431 -1.48541,-2.86431 -6.85279,0 -14.87485,4.81672 -17.90095,10.74832 l -1.55496,3.04804 3.84173,-0.455 c 2.11295,-0.25027 5.45338,-1.16685 7.42318,-2.03688 z m -7.7839,-29.30282 c 0.71747,-1.16092 -4.06581,-9.7176 -6.74943,-12.07383 -2.55633,-2.24449 -8.2323,-4.51551 -9.10485,-3.64297 -0.66047,0.66047 1.79993,7.60952 3.7149,10.49224 2.56587,3.86258 10.79285,7.4033 12.13938,5.22456 z m 6.0782,-36.40414 c 2.94144,-2.31374 4.15639,-5.79529 4.15639,-11.91052 0,-6.00572 -0.73292,-6.60242 -3.96504,-3.228 -2.67172,2.78932 -4.25444,6.81037 -4.82346,12.25435 -0.43672,4.17837 -0.35837,4.51841 1.04113,4.51841 0.83237,0 2.44832,-0.73541 3.59098,-1.63424 z m -13.8763,-45.0672 c 0.77503,-4.735511 0.30098,-8.497362 -1.45411,-11.539314 -1.50981,-2.61676 -2.38249,-2.351348 -4.17602,1.270055 -2.18948,4.420885 -1.95807,9.826982 0.64873,15.155069 l 2.18636,4.4688 1.05527,-2.58619 c 0.5804,-1.42241 1.3633,-4.4682 1.73977,-6.76842 z M 171.50951,240.71566 c 0.59099,8.18887 -10.08558,7.19547 -18.61989,11.07246 -7.8498,3.56605 -13.89517,11.56741 -16.09469,16.08718 -3.26612,-7.52026 5.6181,-16.79636 15.1143,-20.81107 7.41231,-3.1337 13.14652,-2.40721 19.60028,-6.34857 z M 46.373889,255.38363 c -1.240596,-1.41297 -3.327377,-4.12676 -4.637296,-6.03066 -1.309918,-1.90391 -2.493556,-3.46164 -2.630307,-3.46164 -0.136755,0 -1.466461,0.50884 -2.954903,1.13076 -3.792273,1.58451 -7.047086,1.40017 -11.423752,-0.64697 -3.585233,-1.67696 -10.176733,-7.8506 -10.176733,-9.53158 0,-1.01544 3.272333,-2.25968 5.942904,-2.25968 3.224267,0 9.37384,2.05564 12.503833,4.1797 1.560524,1.05901 2.949076,1.81372 3.085663,1.67712 0.136594,-0.13659 -0.942155,-3.21332 -2.397217,-6.83718 -3.58524,-8.92917 -6.129627,-19.30275 -7.629488,-31.10571 l -1.25143,-9.84803 -3.643278,-2.51178 c -4.135666,-2.85126 -7.617202,-6.93811 -9.260088,-10.87007 -1.270095,-3.03977 -1.506043,-9.93993 -0.364026,-10.64573 1.324318,-0.81846 8.492258,3.66559 10.500428,6.56879 1.064578,1.53904 2.118231,2.81115 2.341456,2.82687 0.223217,0.0157 0.491287,-2.60038 0.5957,-5.81359 0.539178,-16.59193 5.048873,-38.04543 10.082775,-47.96568 1.291156,-2.54446 1.372813,-3.36519 0.628787,-6.31997 -1.490424,-5.91904 -1.120391,-13.39248 0.860779,-17.3848 0.961896,-1.938365 2.21748,-3.524294 2.790174,-3.524294 0.5727,0 1.694856,1.187279 2.493691,2.638415 1.13524,2.062219 1.398969,3.790779 1.207661,7.915229 -0.217518,4.6894 -0.760134,6.32581 -4.874278,14.69973 -2.660198,5.41456 -5.435211,12.46923 -6.52358,16.5843 -3.290771,12.44223 -3.425164,11.99089 1.940785,6.51826 4.922563,-5.02045 8.842399,-6.92993 12.395307,-6.0382 2.252986,0.56546 2.189823,1.35301 -0.482197,6.01166 -3.499816,6.10195 -9.157777,10.09259 -14.309323,10.09259 -3.988366,0 -4.196808,1.19811 -4.196808,24.12261 0,14.24463 0.320446,22.46598 1.024245,26.27779 l 1.024256,5.54741 1.785457,-4.41667 c 2.984709,-7.38322 7.302697,-9.51272 8.224588,-4.0561 0.969044,5.73575 -1.084893,10.94487 -5.607184,14.2208 l -2.917458,2.11341 2.434742,7.4831 c 3.670626,11.28156 11.235429,25.1023 15.82436,28.91077 0.659377,0.54724 1.198872,1.29268 1.198872,1.65652 0,1.34017 -1.410548,0.59425 -3.607117,-1.9075 z m -11.58202,-9.56604 c 1.305699,-0.45516 2.373992,-1.13149 2.373992,-1.50294 0,-1.17582 -6.031103,-5.09964 -10.284297,-6.69097 -4.424889,-1.65557 -7.530798,-1.92243 -9.30663,-0.79966 -2.526868,1.59763 8.544293,9.79186 13.259318,9.81379 0.871001,0.004 2.651928,-0.36505 3.957617,-0.82022 z m 1.163828,-33.71968 c 1.543371,-3.02138 2.041195,-6.27058 1.347414,-8.79437 l -0.620653,-2.25778 -1.892209,2.04172 c -1.985601,2.14252 -3.234912,5.50762 -4.117137,11.08979 l -0.52772,3.33915 2.390862,-1.70244 c 1.314968,-0.93634 2.853721,-2.60857 3.419443,-3.71607 z M 25.104547,189.0799 c 0,-6.43753 -3.506035,-13.43041 -8.336274,-16.62691 -3.850009,-2.54782 -4.478871,-2.45733 -4.478871,0.64447 0,5.04688 3.462276,11.02244 8.557569,14.76957 3.380462,2.48603 4.257576,2.73588 4.257576,1.21287 z m 12.816074,-37.70562 c 2.802233,-1.85443 7.537392,-7.79688 7.537392,-9.45913 0,-1.58101 -4.346347,-0.77057 -7.285401,1.35847 -2.56101,1.85517 -4.375115,3.86488 -8.873261,9.8299 -1.366244,1.81179 5.286956,0.47729 8.62127,-1.72924 z m 2.206405,-37.05491 c 1.727083,-4.61604 1.99773,-9.42688 0.734248,-13.0513 -1.092258,-3.133251 -1.775728,-2.994603 -3.236647,0.6566 -1.731522,4.32748 -1.483918,16.56906 0.335132,16.56906 0.33299,0 1.30826,-1.87847 2.167267,-4.17436 z M 204.51657,250.46323 c -3.80846,-1.16268 -8.09649,-3.78408 -9.3705,-5.72848 -1.11056,-1.69492 -1.16807,-2.33671 -0.37988,-4.23958 1.93372,-4.66838 -0.66827,-29.28305 -5.34543,-50.56754 -1.76543,-8.03399 -5.74916,-20.53995 -7.30868,-22.9438 -3.50682,-5.40543 -12.64388,-2.23467 -16.80308,5.83101 -4.90704,9.51596 -5.67953,27.70902 -1.37283,32.33171 1.33898,1.43723 2.05957,1.61498 4.85068,1.19641 5.64321,-0.84624 13.44815,3.96686 12.10567,7.46528 -1.25153,3.26144 -10.81685,4.76737 -15.3597,2.41819 -3.50225,-1.8111 -7.42588,-6.69115 -9.25321,-11.50878 -3.25009,-8.56864 -1.53618,-25.84353 3.60595,-36.34512 2.53613,-5.17947 7.08267,-10.33741 10.77034,-12.21873 3.51272,-1.79206 11.07554,-1.99268 14.20045,-0.37673 5.82896,3.01428 12.93638,14.29663 15.92833,25.28471 2.05017,7.52933 6.17052,27.10808 8.6461,41.08384 1.10164,6.21913 2.08071,11.38682 2.17572,11.48376 0.095,0.0969 1.46712,-4.65218 3.04909,-10.55365 8.22036,-30.6655 19.64673,-58.90174 30.42414,-75.18255 5.51194,-8.32657 13.6364,-16.45227 19.14393,-19.14686 5.14053,-2.51502 13.41463,-3.62137 13.41463,-1.79369 0,0.81173 -1.13851,1.24748 -4.04257,1.54721 -19.75729,2.03913 -39.22655,34.11453 -55.46886,91.38428 -1.99898,7.04833 -4.39678,16.1331 -5.32845,20.18834 -1.63488,7.11597 -3.65783,11.1661 -5.50969,11.03091 -0.48816,-0.0357 -1.73563,-0.3237 -2.77215,-0.64014 z M 72.784425,246.89589 c -1.554144,-0.21964 -2.449954,-0.77092 -2.449954,-1.50769 0,-0.99266 0.866773,-1.08472 5.96481,-0.63344 15.237784,1.34885 24.575189,-6.00052 37.235979,-29.30804 l 5.13228,-9.44811 -6.69301,-11.52613 c -3.68115,-6.33936 -8.58215,-14.76562 -10.89109,-18.72499 -6.752859,-11.57985 -11.146545,-20.53993 -11.147984,-22.73421 -0.0014,-2.10661 4.941944,-8.13544 6.670629,-8.13544 0.481122,0 3.233522,4.83396 6.116455,10.74209 4.41478,9.04748 18.74818,34.13456 21.33438,37.34056 0.59834,0.74172 1.16215,0.301 2.41087,-1.88457 2.01338,-3.52393 8.42266,-14.76794 10.19545,-17.88624 7.35002,-12.92844 19.94471,-30.13651 26.49722,-36.20298 10.48532,-9.70754 19.89296,-10.52885 27.68343,-2.41679 3.59217,3.74047 2.29781,5.07286 -1.55055,1.59611 -8.64798,-7.81295 -15.81773,-6.31233 -27.25276,5.70394 -3.50563,3.68382 -8.35798,9.74233 -10.78302,13.46336 -11.03162,16.92724 -14.67567,22.84573 -18.39391,29.87453 -2.19329,4.14608 -4.61292,8.44527 -5.37699,9.55375 l -1.38922,2.01539 12.26007,18.33807 c 12.58121,18.81841 13.96874,20.29682 16.82454,17.9267 0.92268,-0.76573 1.08926,-0.37926 1.08926,2.52671 0,4.00185 -1.13387,5.43813 -5.14605,6.5185 -7.55619,2.03467 -14.15024,-4.30475 -25.89089,-24.89101 -2.58542,-4.53333 -4.90318,-8.24241 -5.15057,-8.24241 -0.2474,0 -1.2262,1.61133 -2.1751,3.58072 -3.9222,8.14032 -11.31378,19.57109 -15.77416,24.39415 -6.604534,7.14152 -12.314013,9.93509 -20.753014,10.15416 -3.380929,0.0878 -7.249625,0.004 -8.597101,-0.18669 z M 129.32647,143.37046 c -1.34493,-0.30898 -3.01137,-1.02911 -3.70321,-1.60026 -2.42413,-2.00121 -4.2239,-7.55669 -4.59904,-14.19611 -0.59819,-10.58745 1.90794,-24.71645 12.24064,-69.010022 7.04155,-30.185297 6.4893,-39.882744 -2.06764,-36.307423 -8.90413,3.720378 -21.35171,26.250444 -29.22198,52.891729 -2.769453,9.374669 -5.018661,12.438228 -9.13193,12.438228 -2.247621,0 -2.322644,-0.100579 -1.827803,-2.449956 2.150237,-10.208753 2.911872,-16.538809 2.982805,-24.790685 0.07045,-8.19894 -0.107818,-9.736125 -1.280165,-11.037247 -1.806958,-2.005465 -3.592582,-1.443128 -7.350572,2.314868 -5.604473,5.604462 -12.200949,18.857343 -15.836545,31.816943 -0.975315,3.476649 -2.44614,6.827242 -3.472987,7.911583 -1.670613,1.764158 -1.904776,1.810962 -3.77207,0.75383 -6.641178,-3.759769 -7.279531,-19.253932 -1.64588,-39.949443 2.09808,-7.707443 3.047863,-9.045984 6.418698,-9.045984 2.200007,0 3.339967,0.61974 5.960867,3.240641 4.339315,4.339321 4.772753,6.435177 2.598618,12.5654 -2.674648,7.541487 -2.640485,7.595318 0.864427,1.362115 4.343656,-7.724834 8.151748,-12.134699 12.150347,-14.070381 8.531203,-4.129884 15.53612,0.454538 15.67487,10.258531 0.0462,3.257694 0.12917,3.423393 0.86235,1.720335 5.49785,-12.770639 7.91805,-17.821736 10.95211,-22.857628 10.11246,-16.784532 23.72673,-22.863946 32.9893,-14.731304 8.9986,7.900877 6.10657,29.161157 -11.41971,83.9496 -8.8274,27.59516 -10.09944,36.56086 -5.18719,36.56086 6.01592,0 15.30714,-15.29359 29.08113,-47.868338 2.62972,-6.219116 7.55726,-16.904685 10.95011,-23.745709 3.39286,-6.841027 6.59,-13.795127 7.10477,-15.453557 2.1568,-6.948591 3.93544,-10.18991 5.85606,-10.671955 2.76142,-0.693073 5.37306,0.503032 7.88223,3.610011 3.79477,4.698854 3.63304,7.310512 -1.16739,18.851824 -6.23363,14.987072 -9.37882,26.958625 -7.56035,28.777089 1.15626,1.156255 6.89776,-3.365001 12.01618,-9.462391 5.67247,-6.757379 9.91366,-12.762518 16.8589,-23.870625 3.53236,-5.649587 3.91046,-6.650622 3.4945,-9.251834 -0.25653,-1.604237 -0.10979,-5.149163 0.32609,-7.877613 1.74993,-10.95409 8.00685,-17.7873 17.29441,-18.887277 7.44777,-0.882074 12.47054,1.644636 15.19579,7.644287 1.65597,3.645614 1.8408,10.093948 0.34783,12.135694 -1.5781,2.158183 -2.23047,0.865708 -2.03091,-4.023715 0.20971,-5.138406 -0.51374,-7.349855 -3.32172,-10.153831 -4.34201,-4.335824 -10.93376,-1.110673 -10.90329,5.334658 0.0142,3.021194 1.8023,12.198722 2.96277,15.207265 8.18161,21.210988 12.12094,32.08301 12.88261,35.554387 1.09286,4.980579 -0.0621,5.064899 12.41022,-0.905805 27.13424,-12.98941 40.2237,-27.855408 35.475,-40.289733 -1.65431,-4.331722 -4.98987,-7.173994 -8.41909,-7.173994 -7.34964,0 -16.90247,7.558411 -18.32142,14.496296 -0.66095,3.231633 -2.81619,3.416594 -2.43747,0.209174 0.93461,-7.915432 10.59691,-16.173746 19.66485,-16.80747 3.45604,-0.241536 4.64716,0.0168 6.78908,1.472476 5.73261,3.895947 7.61667,12.386643 4.55067,20.507942 -4.04802,10.722484 -23.30183,25.201648 -45.0284,33.862062 l -3.20378,1.277059 v 5.691625 c 0,12.621348 -4.8354,26.185928 -12.05623,33.820888 -6.62092,7.00065 -18.42609,11.47003 -25.33074,9.59007 -13.93324,-3.79365 -16.85303,-21.5624 -5.18236,-31.53816 4.11438,-3.51688 14.29365,-9.03969 21.27358,-11.542111 2.59129,-0.929027 4.71145,-1.975161 4.71145,-2.324741 0,-1.433724 -3.80051,-10.567764 -7.33606,-17.631265 -3.46218,-6.916934 -7.55745,-16.017134 -8.7837,-19.518495 -0.39148,-1.117821 -2.10746,1.00292 -7.92942,9.799817 -8.43484,12.744954 -15.63575,21.490915 -20.41158,24.79115 -5.71367,3.948291 -12.39239,2.491148 -14.93396,-3.258249 -1.30273,-2.946953 -1.74808,-15.048365 -0.71221,-19.35254 0.8912,-3.70305 -4.22897,6.743395 -11.90928,24.297956 -9.26592,21.178688 -13.67065,30.138688 -18.30142,37.228298 -5.44878,8.34193 -9.52334,10.97533 -15.02576,9.71116 z m 95.59108,-6.10994 c 7.14222,-4.82104 11.31965,-13.54688 11.51068,-24.04363 0.064,-3.52416 -0.15693,-7.7111 -0.49124,-9.30429 -0.55981,-2.66794 -0.76783,-2.85901 -2.6336,-2.41906 -1.11418,0.26271 -6.09647,2.46496 -11.07176,4.89391 -10.89846,5.32064 -15.58738,9.46133 -17.31971,15.2947 -2.0026,6.74348 0.49216,13.77656 6.02759,16.99276 4.23193,2.45882 8.94676,1.98175 13.97804,-1.41439 z M 188.11947,29.90381 c -4.32165,-3.699183 -7.72552,-10.737184 -7.72552,-15.973671 0,-4.8161504 1.3471,-7.7370612 4.77362,-10.3505896 5.96457,-4.5494065 11.34156,-2.8016846 13.3485,4.3387559 l 0.80842,2.8763067 2.95395,-2.6687163 c 1.62467,-1.4678016 3.84637,-2.8927025 4.93708,-3.1664566 4.38185,-1.0997731 10.12741,4.0947856 10.09682,9.1285369 -0.0211,3.463933 -2.48778,8.140429 -5.68325,10.774401 -2.80436,2.311596 -9.23878,5.065669 -10.01697,4.287481 -0.63831,-0.638307 0.8459,-1.632069 3.89225,-2.606065 4.00092,-1.279201 8.44221,-5.741261 9.61015,-9.655089 0.82941,-2.779478 0.79238,-3.589477 -0.26562,-5.808134 -1.43673,-3.0128476 -5.13492,-5.2117607 -7.54312,-4.4850665 -2.11184,0.6372519 -5.47528,3.7745435 -7.42647,6.9270985 -2.04954,3.311402 -2.77997,3.081062 -2.39043,-0.753832 0.39058,-3.8450336 -1.47578,-7.9404299 -4.34286,-9.5296135 -1.73774,-0.9632239 -2.26471,-0.9242508 -4.88996,0.3616359 -8.9048,4.3617328 -8.2416,16.4692866 1.38995,25.3753676 4.47179,4.134964 3.15519,4.935036 -1.52654,0.92765 z"
     style="fill:#806600;stroke-width:0.75383204" />
  <path
     style="fill:#806600;fill-opacity:1;stroke:none;stroke-width:1.07774699;stroke-miterlimit:4;stroke-dasharray:none;stroke-opacity:1"
     d="m 32.23228,467.51284 c -10.12416,-3.25929 -19.665105,-11.85141 -21.565398,-19.42076 -0.9000751,-3.58522 0.796439,-2.43987 4.977291,3.36028 5.417278,7.51548 11.679348,10.93317 21.02132,11.47296 16.264768,0.93979 30.137677,-11.23187 25.179314,-22.09156 -2.467155,-5.40351 -6.46207,-7.87463 -22.201685,-13.73323 -8.386438,-3.12161 -17.298712,-6.83661 -19.805044,-8.25556 -6.474741,-3.66566 -13.0296636,-10.81586 -15.8018713,-17.23693 -2.1496509,-4.9791 -2.3282169,-6.48125 -1.8492476,-15.55633 0.611927,-11.59372 3.3375926,-20.92553 9.0571629,-31.00825 7.448289,-13.13031 21.542981,-27.25387 32.228094,-32.29414 13.153646,-6.20469 29.704156,-2.20859 33.419075,8.06901 2.47565,6.84907 -0.247237,20.46131 -7.20472,36.01775 -4.079632,9.12181 -13.77115,24.13857 -19.189822,29.7342 l -2.660296,2.74715 2.241309,-3.24725 c 5.019409,-7.27224 13.725157,-24.29607 16.341228,-31.95472 12.773476,-37.395 -0.09261,-49.97159 -27.443986,-26.82642 -12.638723,10.69508 -21.768095,25.1514 -25.808352,40.8674 -3.2616989,12.68747 -2.475186,21.44964 2.626956,29.26605 3.454285,5.29192 9.330166,8.62175 26.884827,15.23545 22.766606,8.57727 29.388918,14.37841 28.85519,25.27716 -0.216722,4.42539 -0.828886,6.19277 -3.299384,9.52577 -3.873388,5.22565 -10.936848,9.46781 -18.28836,10.98356 -7.030791,1.44964 -10.958685,1.24306 -17.713602,-0.93158 z m 79.22068,-26.43774 c -2.79724,-1.52291 -5.28914,-7.76809 -6.24633,-15.65442 -0.86392,-7.11774 -0.0986,-11.80192 5.00368,-30.62734 1.53828,-5.6755 2.83587,-11.11506 2.8835,-12.08787 0.26056,-5.32051 -9.31692,2.02009 -15.671538,12.01133 -4.297785,6.75734 -9.010417,18.7884 -10.73984,27.41806 -1.053595,5.25741 -1.678209,5.78498 -4.88786,4.12843 -3.326715,-1.71699 -3.688908,-5.19127 -2.598966,-24.93056 1.345337,-24.36505 5.431713,-38.44267 17.142214,-59.05531 5.31361,-9.3529 6.88565,-11.38942 9.76383,-12.64842 6.25754,-2.73734 12.62077,1.06069 13.60746,8.12191 0.62505,4.47309 -2.62309,15.68885 -7.54448,26.05055 -4.22438,8.89423 -13.652062,21.98195 -21.027963,29.19145 -5.569215,5.44356 -5.786638,5.83393 -5.720608,10.27045 l 0.06864,4.61182 4.594631,-7.92773 c 4.467057,-7.70762 11.18767,-16.39653 15.211,-19.66599 1.09002,-0.88576 3.39102,-1.94098 5.11335,-2.34492 2.68989,-0.63084 3.44077,-0.39326 5.32494,1.68494 2.74022,3.02242 2.66454,5.08458 -0.91336,24.89433 -4.49684,24.89768 -2.72256,37.97095 4.48828,33.07055 2.40798,-1.63642 11.9478,-21.79698 15.80337,-33.39731 5.92589,-17.82941 6.57772,-19.43159 9.71613,-23.88292 5.57256,-7.90381 13.89041,-10.13699 19.15294,-5.14224 2.08556,1.97946 2.51048,3.21021 2.35684,6.82638 -0.15089,3.55136 0.13904,4.42816 1.48688,4.49661 2.03334,0.10318 2.02821,0.31234 -0.15289,6.23003 -3.57356,9.69569 -2.38768,27.49927 2.03773,30.5928 2.49281,1.74255 6.48412,0.19883 9.63001,-3.72462 6.28141,-7.83402 13.87149,-29.49986 12.1509,-34.68473 -2.68296,-8.08487 8.7586,-41.47102 14.75541,-43.05602 2.45755,-0.64954 6.541,2.10078 6.57611,4.42916 0.12201,8.09232 -6.7349,27.24912 -12.89418,36.02372 -1.42147,2.02506 -2.59546,3.90575 -2.60886,4.17936 -0.0509,1.04122 3.52006,0.61044 5.36345,-0.64693 2.05438,-1.40136 5.87092,-1.65446 6.50415,-0.43134 0.21017,0.40595 -0.61408,4.57383 -1.83165,9.26197 -1.21759,4.68814 -2.71246,12.92353 -3.32196,18.30088 -1.3462,11.87698 -0.42289,12.57283 6.38079,4.80889 5.29496,-6.04228 16.60161,-23.51828 18.98085,-29.33754 0.91959,-2.24915 2.3787,-5.06077 3.24252,-6.24806 0.99869,-1.37272 1.40099,-3.1629 1.10487,-4.9167 -1.12191,-6.64439 3.49345,-14.29466 9.32608,-15.4586 4.29226,-0.85655 9.64785,1.58066 11.72055,5.33247 1.41995,2.57078 1.74183,4.86398 1.45469,10.36356 -0.20282,3.88428 -0.8228,8.65865 -1.37772,10.60973 -1.19828,4.21288 -0.22707,4.57786 5.37619,2.02092 5.46172,-2.49216 11.6889,-8.92768 13.70802,-14.16661 3.24788,-8.42719 8.76498,-12.96241 11.41119,-9.38038 0.64906,0.8786 -0.0126,3.28601 -2.25282,8.19714 -3.14498,6.8945 -5.97611,20.48004 -3.8758,18.59858 0.55837,-0.5002 3.528,-5.96576 6.59918,-12.14571 9.81358,-19.74731 14.50381,-25.6662 20.12025,-25.39116 7.09956,0.34768 8.55737,8.15422 4.05572,21.7182 -2.22152,6.69366 -6.05113,26.90383 -5.48285,28.93486 0.48958,1.74984 2.77529,1.37296 5.08361,-0.83823 2.84144,-2.7219 8.51934,-12.78441 13.49871,-23.9227 2.01035,-4.49691 3.00093,-6.93182 3.32114,-8.63578 0.46314,0.33962 0.15527,0.6988 2.18129,2.85068 l -1.95557,4.55291 c -3.52121,8.1979 -12.3529,22.78978 -15.7983,26.10224 -2.83932,2.72976 -3.78959,3.11831 -5.99098,2.44978 -5.48415,-1.66548 -6.85157,-4.84312 -6.36445,-14.78987 0.21081,-4.305 1.46514,-10.46316 3.39259,-16.65607 4.50924,-14.48823 5.02806,-16.92286 3.62096,-16.99174 -1.79343,-0.0878 -8.8855,10.22391 -14.99708,21.80546 -2.98501,5.65663 -6.38319,12.07968 -7.55154,14.27341 -2.39715,4.50103 -5.02234,6.15568 -8.22383,5.18344 -2.68647,-0.81587 -4.07395,-5.07873 -3.75732,-11.54402 l 0.23216,-4.74059 -3.50644,2.78715 c -4.08707,3.24863 -7.71594,5.00703 -11.77625,5.70627 -2.42774,0.4181 -3.40821,1.49551 -6.00036,6.59377 -3.76858,7.41208 -6.62129,9.64937 -11.93514,9.36035 -4.8985,-0.26643 -7.82796,-2.65307 -9.24169,-7.52918 l -1.07861,-3.7203 -3.97783,5.90727 c -8.42979,12.51866 -15.07537,21.22413 -16.84033,22.06036 -2.69505,1.27689 -6.3417,-0.65727 -8.41351,-4.46245 -2.71697,-4.9901 -1.25256,-20.18563 2.83467,-29.41402 0.47428,-1.07086 -0.33615,-1.75472 -3.14487,-2.65373 l -3.78382,-1.21106 -0.74578,3.42231 c -2.96233,13.5938 -10.58051,29.791 -15.49201,32.93803 -8.21884,5.26621 -16.95236,-1.8 -18.07452,-14.62385 -0.21801,-2.49109 -0.70024,-4.54413 -1.0717,-4.56233 -0.3714,-0.0183 -1.26892,1.64487 -1.99444,3.6957 -3.95334,11.17492 -13.27619,12.15198 -18.38194,1.92645 l -2.10806,-4.22186 -1.91259,5.60944 c -2.79769,8.20546 -7.29752,18.1738 -10.22553,22.65241 -4.13539,6.32544 -7.98567,7.88338 -12.88742,5.21468 z m 42.37403,-29.74395 c 5.09245,-7.40368 10.80758,-26.58978 9.30081,-31.22348 -2.68107,-8.2451 -11.57756,-0.40073 -16.15789,14.24702 -5.27374,16.86513 -0.75731,28.04669 6.85708,16.97646 z m 87.88356,-6.59563 c 2.25631,-2.16883 6.5069,-9.4947 5.8069,-10.00814 -0.13401,-0.0982 -1.58525,-0.78998 -3.225,-1.53704 -1.63973,-0.74709 -3.68485,-2.21657 -4.54466,-3.26554 -2.26568,-2.76407 -2.95565,-2.45106 -4.38806,1.99053 -1.9461,6.03449 -0.44757,15.12491 2.51722,15.27011 0.67241,0.033 2.39755,-1.06951 3.8336,-2.44992 z M 90.428927,391.8442 c 16.621593,-17.15984 30.517063,-51.18417 23.889113,-58.49472 -2.28305,-2.5182 -5.00033,-0.34061 -10.19514,8.17042 -5.531942,9.06334 -12.621568,26.92125 -15.210865,38.31441 -3.828479,16.84562 -3.752186,17.44958 1.516892,12.00989 z M 249.2861,390.23978 c 2.52719,-7.77657 2.48243,-19.22098 -0.0927,-23.68887 -1.3837,-2.40077 -5.66075,0.0556 -7.99321,4.59055 -3.74093,7.27352 -2.71251,15.71809 2.33135,19.14301 3.76165,2.55427 4.91283,2.54532 5.75451,-0.0447 z m -47.69117,-16.96252 c 3.21406,-7.35168 7.56434,-22.96558 6.67259,-23.94919 -0.83556,-0.92161 -5.73454,9.67434 -7.96713,17.23198 -5.05569,17.11419 -4.50352,19.97931 1.29454,6.71721 z"
     id="path98" />
</svg>
