<?xml version="1.0" encoding="UTF-8" standalone="no"?>
<svg
   xmlns:dc="http://purl.org/dc/elements/1.1/"
   xmlns:cc="http://creativecommons.org/ns#"
   xmlns:rdf="http://www.w3.org/1999/02/22-rdf-syntax-ns#"
   xmlns:svg="http://www.w3.org/2000/svg"
   xmlns="http://www.w3.org/2000/svg"
   xmlns:xlink="http://www.w3.org/1999/xlink"
   viewBox="0 0 752 752"
   height="752"
   width="752"
   id="svg88"
   version="1.1">
  <metadata
     id="metadata94">
    <rdf:RDF>
      <cc:Work
         rdf:about="">
        <dc:format>image/svg+xml</dc:format>
        <dc:type
           rdf:resource="http://purl.org/dc/dcmitype/StillImage" />
        <dc:title></dc:title>
      </cc:Work>
    </rdf:RDF>
  </metadata>
  <defs
     id="defs92">
    <linearGradient
       id="linearGradient7225">
      <stop
         style="stop-color:#ffb380;stop-opacity:1"
         offset="0"
         id="stop7221" />
      <stop
         style="stop-color:#de8787;stop-opacity:1"
         offset="1"
         id="stop7223" />
    </linearGradient>
    <linearGradient
       id="linearGradient7203">
      <stop
         style="stop-color:#000000;stop-opacity:1;"
         offset="0"
         id="stop7199" />
      <stop
         style="stop-color:#000000;stop-opacity:0"
         offset="1"
         id="stop7201" />
    </linearGradient>
    <linearGradient
       id="linearGradient7185">
      <stop
         id="stop7181"
         offset="0"
         style="stop-color:#000000;stop-opacity:1;" />
      <stop
         id="stop7183"
         offset="1"
         style="stop-color:#f11bf9;stop-opacity:0" />
    </linearGradient>
    <radialGradient
       r="226.53904"
       fy="479.89899"
       fx="67.514725"
       cy="479.89899"
       cx="67.514725"
       gradientTransform="matrix(2.6269565,-0.79707747,0.1339407,0.44143313,-169.95968,244.68074)"
       gradientUnits="userSpaceOnUse"
       id="radialGradient7189"
       xlink:href="#linearGradient7203" />
    <radialGradient
       gradientUnits="userSpaceOnUse"
       gradientTransform="matrix(1,0,0,0.46293506,0,181.55747)"
       r="227.35139"
       fy="338.05496"
       fx="302.09454"
       cy="338.05496"
       cx="302.09454"
       id="radialGradient7197"
       xlink:href="#linearGradient7185" />
    <radialGradient
       r="227.35139"
       fy="475.3736"
       fx="193.47543"
       cy="475.3736"
       cx="193.47543"
       gradientTransform="matrix(2.6853391,-0.80092683,0.26853169,0.90033003,-442.66867,141.32475)"
       gradientUnits="userSpaceOnUse"
       id="radialGradient7231"
       xlink:href="#linearGradient7225" />
  </defs>
  <g
     style="stroke:url(#radialGradient7189);fill-opacity:1.0;fill:url(#radialGradient7197)"
     id="g7179">
    <ellipse
       transform="rotate(-10.031169)"
       ry="204.16154"
       rx="371.86566"
       cy="432.1777"
       cx="303.88083"
       id="path833"
       style="fill:#ffffff;fill-opacity:1;stroke:#000000;stroke-width:5.60536242;stroke-miterlimit:4;stroke-dasharray:none;stroke-opacity:1" />
    <path
       style="fill:url(#radialGradient7231);fill-opacity:1;stroke:#c34368;stroke-width:2.10267329;stroke-miterlimit:4;stroke-dasharray:none;stroke-opacity:1"
       d="m 161.60713,545.1431 c -20.52327,-3.06229 -41.61567,-16.57545 -47.67516,-30.54375 -2.87007,-6.61607 0.75911,-4.94945 10.64744,4.88956 12.81269,12.74883 25.9516,17.34133 44.10636,15.41667 31.60819,-3.35092 54.45237,-31.18288 41.46215,-50.51495 -6.46362,-9.61916 -14.93788,-13.10875 -47.09565,-19.39326 -17.13443,-3.34855 -35.46935,-7.67256 -40.74425,-9.60893 -13.62698,-5.00236 -28.513747,-16.68709 -35.887416,-28.16831 -5.717768,-8.9029 -6.538072,-11.7379 -8.495114,-29.35962 -2.500174,-22.51227 -0.213644,-41.34096 7.597814,-62.56499 10.172495,-27.63909 32.824356,-59.29885 51.794416,-72.39137 23.3526,-16.11719 56.48048,-13.67528 66.89239,4.93078 6.93856,12.3992 6.01544,39.46689 -2.44254,71.62068 -4.95949,18.85397 -18.85177,50.83622 -27.50763,63.32702 l -4.24957,6.13232 3.28436,-6.96208 c 7.35535,-15.59165 18.71327,-51.12483 21.31954,-66.69787 12.7256,-76.03864 -16.03188,-96.16707 -61.34104,-42.93482 -20.93678,24.59795 -33.924724,55.323 -36.716384,86.85844 -2.253715,25.45844 2.040154,42.07628 14.341684,55.50441 8.32843,9.09119 20.69603,13.63703 56.58737,20.79929 46.54739,9.28871 61.13591,18.3551 63.56611,39.50476 0.98677,8.58772 0.36905,12.18416 -3.3293,19.38404 -5.79852,11.28835 -18.05001,21.69549 -31.72097,26.94563 -13.07454,5.0211 -20.70134,5.86957 -34.39461,3.82637 z m 144.11414,-76.02618 c -5.86788,-2.04421 -12.64614,-13.27575 -16.99072,-28.15345 -3.92116,-13.4277 -3.93402,-22.68767 -0.0843,-60.54573 1.16063,-11.41352 1.93279,-22.29644 1.71587,-24.18425 -1.18636,-10.32476 -17.2944,6.84454 -26.35744,28.09394 -6.12954,14.3715 -11.38462,39.02666 -11.976,56.18762 -0.36027,10.45488 -1.39531,11.6686 -8.09949,9.49796 -6.9487,-2.2498 -8.74817,-8.82296 -12.91235,-47.16733 -5.14005,-47.33009 -1.73984,-75.72622 14.26372,-119.12121 7.2616,-19.69029 9.64175,-24.10938 14.78285,-27.44611 11.17752,-7.25462 24.63179,-1.96208 28.7714,11.31787 2.62234,8.41251 -0.0723,31.03358 -6.25871,52.54142 -5.31032,18.46179 -19.30671,46.64688 -31.21827,62.86535 -8.99386,12.24585 -9.28857,13.06625 -7.75396,21.58572 l 1.59524,8.85608 6.32967,-16.71872 c 6.15394,-16.25448 16.33469,-35.11302 23.04246,-42.68317 1.81728,-2.05094 5.91201,-4.81225 9.09935,-6.13624 4.97798,-2.06779 6.49883,-1.84863 10.78519,1.5542 6.23384,4.94889 6.74241,8.94254 6.13956,48.21192 -0.75771,49.3552 6.80535,73.95864 19.13173,62.23761 4.11625,-3.91408 16.08465,-45.75014 19.82647,-69.30421 5.75107,-36.20204 6.49753,-39.49306 11.12687,-49.05765 8.21983,-16.98291 23.52336,-23.9207 35.23844,-15.97522 4.64275,3.14884 5.8512,5.38327 6.70266,12.39323 0.83618,6.88427 1.67249,8.48018 4.28886,8.18436 3.94694,-0.44646 4.00342,-0.0422 1.68215,12.04143 -3.8032,19.79816 4.12786,53.69423 13.62829,58.24534 5.35157,2.56362 12.54517,-1.67431 17.35634,-10.22509 9.60652,-17.07346 17.34404,-61.18868 12.38696,-70.62381 -7.72967,-14.71235 3.70374,-82.6113 14.74493,-87.56497 4.52473,-2.03004 13.25802,1.9689 14.06429,6.43994 2.80217,15.5392 -4.32001,54.59185 -13.39299,73.43718 -2.0939,4.34925 -3.7572,8.3421 -3.6962,8.87303 0.23216,2.02055 6.96986,0.0584 10.11951,-2.94691 3.51019,-3.34941 10.77676,-5.04743 12.38381,-2.89381 0.53336,0.71478 0.26893,8.99955 -0.5876,18.41059 -0.85657,9.41106 -1.12153,25.73864 -0.58885,36.2835 1.17657,23.29055 3.1747,24.33717 13.80882,7.23291 8.27595,-13.31134 24.49722,-50.54012 27.23116,-62.49715 1.05666,-4.6214 2.97352,-10.49675 4.25969,-13.05633 1.48704,-2.95935 1.6935,-6.5331 0.56705,-9.81527 -4.26762,-12.43467 2.18999,-28.62584 13.04867,-32.71689 7.99095,-3.01062 19.07381,-0.0191 24.25405,6.54677 3.54902,4.49828 4.89618,8.81066 6.08817,19.48858 0.84188,7.54168 1.16309,16.92912 0.71381,20.86103 -0.97015,8.49007 1.01523,8.88453 10.99045,2.18473 9.7233,-6.53021 19.66908,-20.89433 21.89385,-31.61994 3.57872,-17.25292 12.76044,-27.73366 18.99086,-21.67769 1.5282,1.48543 1.01831,6.32964 -1.73617,16.49442 -3.86686,14.26979 -5.00678,41.32045 -1.56054,37.03229 0.91617,-1.14003 4.89881,-12.6035 8.85031,-25.47439 12.62648,-41.12737 19.77747,-54.00939 30.67651,-55.26174 13.77713,-1.58306 19.0601,12.98219 14.69752,40.52134 -2.1529,13.59023 -3.11329,53.71022 -1.37501,57.43972 1.49763,3.21315 5.77812,1.76249 9.52015,-3.2264 4.60633,-6.14118 12.34407,-27.31308 18.3958,-50.33425 2.4433,-9.29443 3.57775,-14.29594 3.65356,-17.6777 0.9993,0.50686 0.5206,1.29593 5.10341,4.79562 l -2.32011,9.38485 c -4.17759,16.89824 -16.54948,47.78981 -22.13108,55.25943 -4.59974,6.15562 -6.30573,7.20509 -10.75556,6.61655 -11.08549,-1.46623 -14.72593,-7.14945 -16.94384,-26.45168 -0.95994,-8.35414 -0.49902,-20.60667 1.24665,-33.13966 4.08399,-29.32071 4.31033,-34.17202 1.57974,-33.85825 -3.48024,0.39988 -13.86122,22.50023 -21.95186,46.73388 -3.95162,11.83616 -8.45551,25.27875 -10.0086,29.87238 -3.18663,9.4251 -7.71523,13.44317 -14.1866,12.58725 -5.43038,-0.71826 -9.45369,-8.48418 -10.89531,-21.03046 l -1.05705,-9.19939 -5.86575,6.47773 c -6.83705,7.55034 -13.26487,12.08658 -20.85923,14.72075 -4.54081,1.57504 -6.0864,3.96014 -9.45892,14.5968 -4.90312,15.46401 -9.68487,20.67588 -20.00582,21.80533 -9.51425,1.04116 -15.91069,-2.62376 -20.17913,-11.5619 l -3.25663,-6.81947 -5.78331,12.6336 c -12.25599,26.77305 -22.28699,45.63961 -25.41931,47.80933 -4.78293,3.31306 -12.41643,0.74666 -17.61194,-5.92115 -6.81332,-8.74407 -8.81511,-38.46038 -3.87485,-57.52193 0.57327,-2.2119 -1.20379,-3.27124 -6.89584,-4.11076 l -7.66813,-1.13093 -0.34992,6.82464 c -1.38992,27.10819 -10.91646,60.70505 -19.37282,68.32134 -14.15072,12.74499 -33.20474,1.91313 -39.43333,-22.41708 -1.20994,-4.72623 -2.78959,-8.5254 -3.51041,-8.44258 -0.72076,0.0828 -1.92088,3.56898 -2.66689,7.74702 -4.06503,22.76621 -21.70172,27.60475 -34.7745,9.54019 l -5.39744,-7.4584 -1.90215,11.40507 c -2.78245,16.68328 -8.28222,37.30014 -12.49788,46.85053 -5.95395,13.48852 -12.87158,17.70911 -23.15421,14.1269 z m 72.13464,-70.70103 c 7.45424,-15.86784 12.36917,-54.61465 7.99857,-63.05661 -7.77689,-15.02141 -22.41422,2.90159 -26.58445,32.55196 -4.80152,34.13887 7.44008,54.23078 18.58588,30.50465 z m 167.08536,-40.57796 c 3.65541,-4.89089 9.51372,-20.34186 8.00331,-21.10818 -0.28912,-0.14665 -3.30225,-1.01777 -6.69582,-1.93569 -3.39356,-0.91794 -7.79664,-3.09792 -9.78458,-4.84443 -5.23838,-4.60209 -6.46729,-3.78067 -7.81559,5.22394 -1.83184,12.23392 3.93681,29.25779 9.69017,28.59672 1.30489,-0.14994 4.27602,-2.81949 6.60251,-5.93236 z m -295.31034,23.1783 c 26.55294,-38.3063 42.50775,-108.21229 27.42953,-120.18252 -5.19383,-4.12327 -9.7338,0.9307 -17.03378,18.96268 -7.77377,19.20216 -15.756,55.82825 -17.12596,78.58179 -2.02558,33.64281 -1.68712,34.78122 6.73021,22.63805 z M 554.9256,327.5299 c 2.39775,-15.77181 -1.31918,-37.78834 -7.69372,-45.57216 -3.42531,-4.18258 -10.87945,1.90284 -13.93074,11.37274 -4.89386,15.18852 -0.23506,31.11822 10.56105,36.11109 8.05162,3.72363 10.26484,3.34121 11.06341,-1.91167 z m -97.18802,-17.52309 c 3.85483,-15.17181 7.27566,-46.60909 5.24698,-48.21961 -1.90085,-1.50904 -7.96993,20.4426 -9.87005,35.69954 -4.30277,34.54913 -2.33086,39.88935 4.62307,12.52007 z"
       id="path98" />
  </g>
</svg>
